SplineFontDB: 3.0
FontName: Blackout-TwoAM
FullName: Blackout Two AM
FamilyName: Blackout
Weight: Book
Copyright: Copyright (c) 2012 by SURSLY _ Tyler Finck. All rights reserved.
Version: 2.001
ItalicAngle: 0
UnderlinePosition: -50
UnderlineWidth: 50
Ascent: 800
Descent: 200
sfntRevision: 0x00020042
LayerCount: 2
Layer: 0 1 "Back"  1
Layer: 1 1 "Fore"  0
NeedsXUIDChange: 1
XUID: [1021 361 2070361774 9893262]
FSType: 0
OS2Version: 3
OS2_WeightWidthSlopeOnly: 0
OS2_UseTypoMetrics: 1
CreationTime: 1331971440
ModificationTime: 1346772278
PfmFamily: 17
TTFWeight: 400
TTFWidth: 5
LineGap: 25
VLineGap: 0
Panose: 2 0 8 6 0 0 0 2 0 4
OS2TypoAscent: -56
OS2TypoAOffset: 1
OS2TypoDescent: 199
OS2TypoDOffset: 1
OS2TypoLinegap: 49
OS2WinAscent: -67
OS2WinAOffset: 1
OS2WinDescent: 13
OS2WinDOffset: 1
HheadAscent: -67
HheadAOffset: 1
HheadDescent: -13
HheadDOffset: 1
OS2SubXSize: 700
OS2SubYSize: 650
OS2SubXOff: 0
OS2SubYOff: 140
OS2SupXSize: 700
OS2SupYSize: 650
OS2SupXOff: 0
OS2SupYOff: 477
OS2StrikeYSize: 50
OS2StrikeYPos: 250
OS2Vendor: 'pyrs'
OS2CodePages: 00000001.00000000
OS2UnicodeRanges: 80000001.00000000.00000000.00000000
Lookup: 258 0 0 "'kern' Horizontal Kerning in Latin lookup 0"  {"'kern' Horizontal Kerning in Latin lookup 0 subtable"  } ['kern' ('latn' <'dflt' > ) ]
DEI: 91125
ShortTable: maxp 16
  1
  0
  102
  81
  4
  0
  0
  1
  0
  0
  0
  0
  0
  0
  0
  0
EndShort
LangName: 1033 "" "" "Two AM" "SURSLY_TylerFinck: Blackout Midnight: 2012" "" "Version 2.001" "" "Blackout Two AM is a trademark of SURSLY _ Tyler Finck." "SURSLY _ Tyler Finck" "Tyler Finck" "Copyright (c) 2012 by SURSLY _ Tyler Finck. All rights reserved." "http://www.sursly.com" "http://www.sursly.com" "" "" "" "" "" "Blackout Two AM" 
GaspTable: 3 8 2 16 1 65535 3
Encoding: UnicodeBmp
UnicodeInterp: none
NameList: Adobe Glyph List
DisplaySize: -24
AntiAlias: 1
FitToEm: 1
WinInfo: 176 16 4
BeginChars: 65539 143

StartChar: space
Encoding: 32 32 3
AltUni2: 0000a0.ffffffff.0
Width: 285
Flags: W
LayerCount: 2
Fore
SplineSet
-9 891 m 1,0,-1
 303 891 l 1,1,-1
 303 -155 l 1,2,-1
 -9 -155 l 1,3,-1
 -9 891 l 1,0,-1
EndSplineSet
Validated: 1
EndChar

StartChar: hyphen
Encoding: 45 45 4
Width: 641
Flags: W
LayerCount: 2
Fore
SplineSet
577 301 m 1,0,-1
 577 469 l 1,1,-1
 60 469 l 1,2,-1
 60 301 l 1,3,-1
 577 301 l 1,0,-1
-9 891 m 1,4,-1
 653 891 l 1,5,-1
 653 -155 l 1,6,-1
 -9 -155 l 1,7,-1
 -9 891 l 1,4,-1
EndSplineSet
Validated: 1
EndChar

StartChar: comma
Encoding: 44 44 5
Width: 298
Flags: W
LayerCount: 2
Fore
SplineSet
61 138 m 1,0,-1
 61 0 l 1,1,-1
 125 0 l 1,2,-1
 102 -73 l 1,3,-1
 168 -73 l 1,4,-1
 198 0 l 1,5,-1
 198 138 l 1,6,-1
 61 138 l 1,0,-1
-9 891 m 1,7,-1
 303 891 l 1,8,-1
 303 -155 l 1,9,-1
 -9 -155 l 1,10,-1
 -9 891 l 1,7,-1
EndSplineSet
Validated: 1
EndChar

StartChar: plus
Encoding: 43 43 6
Width: 653
Flags: W
LayerCount: 2
Fore
SplineSet
405 468 m 1,0,-1
 405 642 l 1,1,-1
 237 642 l 1,2,-1
 237 468 l 1,3,-1
 62 468 l 1,4,-1
 62 300 l 1,5,-1
 237 300 l 1,6,-1
 237 125 l 1,7,-1
 405 125 l 1,8,-1
 405 300 l 1,9,-1
 580 300 l 1,10,-1
 580 468 l 1,11,-1
 405 468 l 1,0,-1
-9 891 m 1,12,-1
 662 891 l 1,13,-1
 662 -155 l 1,14,-1
 -9 -155 l 1,15,-1
 -9 891 l 1,12,-1
EndSplineSet
Validated: 1
EndChar

StartChar: asterisk
Encoding: 42 42 7
Width: 505
Flags: W
LayerCount: 2
Fore
SplineSet
422 668 m 1,0,-1
 306 637 l 1,1,-1
 306 742 l 1,2,-1
 196 742 l 1,3,-1
 196 638 l 1,4,-1
 82 668 l 1,5,-1
 54 562 l 1,6,-1
 154 535 l 1,7,-1
 81 462 l 1,8,-1
 159 385 l 1,9,-1
 252 479 l 1,10,-1
 344 387 l 1,11,-1
 421 465 l 1,12,-1
 351 535 l 1,13,-1
 450 562 l 1,14,-1
 422 668 l 1,0,-1
-9 891 m 1,15,-1
 513 891 l 1,16,-1
 513 -155 l 1,17,-1
 -9 -155 l 1,18,-1
 -9 891 l 1,15,-1
EndSplineSet
Validated: 1
EndChar

StartChar: ampersand
Encoding: 38 38 8
Width: 754
Flags: W
LayerCount: 2
Fore
SplineSet
598 388 m 1,0,-1
 500 291 l 1,1,-1
 387 405 l 1,2,3
 430 426 430 426 456.5 467.5 c 128,-1,4
 483 509 483 509 483 560 c 0,5,6
 483 596 483 596 469.5 627.5 c 128,-1,7
 456 659 456 659 432.5 682.5 c 128,-1,8
 409 706 409 706 377.5 719.5 c 128,-1,9
 346 733 346 733 310 733 c 256,10,11
 274 733 274 733 242.5 719.5 c 128,-1,12
 211 706 211 706 187 682.5 c 128,-1,13
 163 659 163 659 149.5 627.5 c 128,-1,14
 136 596 136 596 136 560 c 0,15,16
 136 530 136 530 145 503.5 c 128,-1,17
 154 477 154 477 171 454 c 1,18,19
 121 421 121 421 91 367 c 128,-1,20
 61 313 61 313 61 248 c 0,21,22
 61 197 61 197 80.5 151.5 c 128,-1,23
 100 106 100 106 134 72.5 c 128,-1,24
 168 39 168 39 213.5 19.5 c 128,-1,25
 259 0 259 0 310 0 c 0,26,27
 367 0 367 0 415 23.5 c 128,-1,28
 463 47 463 47 498 87 c 1,29,-1
 589 -4 l 1,30,-1
 692 99 l 1,31,-1
 600 192 l 1,32,-1
 697 288 l 1,33,-1
 598 388 l 1,0,-1
-9 891 m 1,34,-1
 759 891 l 1,35,-1
 759 -155 l 1,36,-1
 -9 -155 l 1,37,-1
 -9 891 l 1,34,-1
EndSplineSet
Validated: 1
EndChar

StartChar: equal
Encoding: 61 61 9
Width: 614
Flags: W
LayerCount: 2
Fore
SplineSet
567 482 m 1,0,-1
 567 650 l 1,1,-1
 50 650 l 1,2,-1
 50 482 l 1,3,-1
 567 482 l 1,0,-1
567 134 m 1,4,-1
 567 302 l 1,5,-1
 50 302 l 1,6,-1
 50 134 l 1,7,-1
 567 134 l 1,4,-1
-9 891 m 1,8,-1
 621 891 l 1,9,-1
 621 -155 l 1,10,-1
 -9 -155 l 1,11,-1
 -9 891 l 1,8,-1
EndSplineSet
Validated: 1
EndChar

StartChar: question
Encoding: 63 63 10
Width: 559
Flags: W
LayerCount: 2
Fore
SplineSet
286 743 m 2,0,1
 237 743 237 743 194 730.5 c 128,-1,2
 151 718 151 718 118.5 694 c 128,-1,3
 86 670 86 670 67.5 634 c 128,-1,4
 49 598 49 598 49 550 c 1,5,-1
 205 512 l 1,6,7
 205 538 205 538 225 557 c 128,-1,8
 245 576 245 576 275 576 c 0,9,10
 301 576 301 576 320.5 560.5 c 128,-1,11
 340 545 340 545 340 519 c 0,12,13
 340 501 340 501 325.5 483 c 128,-1,14
 311 465 311 465 270 439 c 0,15,16
 250 427 250 427 233.5 411.5 c 128,-1,17
 217 396 217 396 204.5 374.5 c 128,-1,18
 192 353 192 353 185 325 c 128,-1,19
 178 297 178 297 178 260 c 2,20,-1
 178 230 l 1,21,-1
 316 230 l 1,22,23
 316 241 316 241 317 251 c 0,24,25
 319 270 319 270 325 281 c 0,26,27
 342 308 342 308 362 326 c 128,-1,28
 382 344 382 344 402 358.5 c 128,-1,29
 422 373 422 373 441 386.5 c 128,-1,30
 460 400 460 400 474.5 419 c 128,-1,31
 489 438 489 438 498 464.5 c 128,-1,32
 507 491 507 491 507 532 c 0,33,34
 507 580 507 580 490.5 618.5 c 128,-1,35
 474 657 474 657 444.5 684.5 c 128,-1,36
 415 712 415 712 375 727.5 c 128,-1,37
 335 743 335 743 287 743 c 2,38,-1
 286 743 l 2,0,1
316 138 m 1,39,-1
 179 138 l 1,40,-1
 179 0 l 1,41,-1
 316 0 l 1,42,-1
 316 138 l 1,39,-1
-9 891 m 1,43,-1
 568 891 l 1,44,-1
 568 -155 l 1,45,-1
 -9 -155 l 1,46,-1
 -9 891 l 1,43,-1
EndSplineSet
Validated: 1
EndChar

StartChar: exclam
Encoding: 33 33 11
Width: 279
Flags: W
LayerCount: 2
Fore
SplineSet
206 0 m 1,0,-1
 206 148 l 1,1,-1
 75 148 l 1,2,-1
 75 0 l 1,3,-1
 206 0 l 1,0,-1
226 744 m 1,4,-1
 55 744 l 1,5,-1
 75 227 l 1,6,-1
 206 227 l 1,7,-1
 226 744 l 1,4,-1
-9 891 m 1,8,-1
 293 891 l 1,9,-1
 293 -155 l 1,10,-1
 -9 -155 l 1,11,-1
 -9 891 l 1,8,-1
EndSplineSet
Validated: 1
EndChar

StartChar: percent
Encoding: 37 37 12
Width: 796
Flags: W
LayerCount: 2
Fore
SplineSet
524 744 m 1,0,-1
 87 0 l 1,1,-1
 255 0 l 1,2,-1
 692 744 l 1,3,-1
 524 744 l 1,0,-1
285 501 m 256,4,5
 285 526 285 526 275.5 548 c 128,-1,6
 266 570 266 570 249.5 586.5 c 128,-1,7
 233 603 233 603 211.5 612.5 c 128,-1,8
 190 622 190 622 165 622 c 256,9,10
 140 622 140 622 118 612.5 c 128,-1,11
 96 603 96 603 79.5 586.5 c 128,-1,12
 63 570 63 570 53.5 548 c 128,-1,13
 44 526 44 526 44 501 c 256,14,15
 44 476 44 476 53.5 454 c 128,-1,16
 63 432 63 432 79.5 415.5 c 128,-1,17
 96 399 96 399 118 389.5 c 128,-1,18
 140 380 140 380 165 380 c 256,19,20
 190 380 190 380 211.5 389.5 c 128,-1,21
 233 399 233 399 249.5 415.5 c 128,-1,22
 266 432 266 432 275.5 454 c 128,-1,23
 285 476 285 476 285 501 c 256,4,5
756 257 m 256,24,25
 756 282 756 282 746.5 303.5 c 128,-1,26
 737 325 737 325 720.5 341.5 c 128,-1,27
 704 358 704 358 682 367.5 c 128,-1,28
 660 377 660 377 635 377 c 256,29,30
 610 377 610 377 588 367.5 c 128,-1,31
 566 358 566 358 549.5 341.5 c 128,-1,32
 533 325 533 325 523.5 303.5 c 128,-1,33
 514 282 514 282 514 257 c 256,34,35
 514 232 514 232 523.5 210 c 128,-1,36
 533 188 533 188 549.5 171.5 c 128,-1,37
 566 155 566 155 588 145.5 c 128,-1,38
 610 136 610 136 635 136 c 256,39,40
 660 136 660 136 682 145.5 c 128,-1,41
 704 155 704 155 720.5 171.5 c 128,-1,42
 737 188 737 188 746.5 210 c 128,-1,43
 756 232 756 232 756 257 c 256,24,25
-9 891 m 1,44,-1
 801 891 l 1,45,-1
 801 -155 l 1,46,-1
 -9 -155 l 1,47,-1
 -9 891 l 1,44,-1
EndSplineSet
Validated: 1
EndChar

StartChar: zero
Encoding: 48 48 13
Width: 549
Flags: W
LayerCount: 2
Fore
SplineSet
507 220 m 2,0,1
 507 226 507 226 507.5 232 c 128,-1,2
 508 238 508 238 508 243 c 2,3,-1
 508 500 l 2,4,5
 508 505 508 505 507.5 511.5 c 128,-1,6
 507 518 507 518 507 524 c 1,7,-1
 508 524 l 1,8,-1
 507 524 l 1,9,-1
 507 525 l 2,10,11
 507 572 507 572 490.5 612 c 128,-1,12
 474 652 474 652 444 681.5 c 128,-1,13
 414 711 414 711 372 727.5 c 128,-1,14
 330 744 330 744 279 744 c 0,15,16
 227 744 227 744 184.5 727.5 c 128,-1,17
 142 711 142 711 112 681.5 c 128,-1,18
 82 652 82 652 65.5 612 c 128,-1,19
 49 572 49 572 49 525 c 2,20,-1
 49 208 l 2,21,22
 49 166 49 166 66 128 c 128,-1,23
 83 90 83 90 113.5 61.5 c 128,-1,24
 144 33 144 33 186.5 16.5 c 128,-1,25
 229 0 229 0 279 0 c 0,26,27
 330 0 330 0 372 16.5 c 128,-1,28
 414 33 414 33 444 62 c 128,-1,29
 474 91 474 91 490.5 131 c 128,-1,30
 507 171 507 171 507 218 c 1,31,-1
 508 218 l 1,32,33
 508 219 508 219 507 219 c 1,34,-1
 507 220 l 2,0,1
-9 891 m 1,35,-1
 556 891 l 1,36,-1
 556 -155 l 1,37,-1
 -9 -155 l 1,38,-1
 -9 891 l 1,35,-1
EndSplineSet
Validated: 5
EndChar

StartChar: one
Encoding: 49 49 14
Width: 399
Flags: W
LayerCount: 2
Fore
SplineSet
162 744 m 1,0,-1
 162 744 l 1,1,-1
 162 744 l 1,2,-1
 162 744 l 1,3,-1
 16 591 l 1,4,-1
 135 472 l 1,5,-1
 162 508 l 1,6,-1
 162 0 l 1,7,-1
 330 0 l 1,8,-1
 330 744 l 1,9,-1
 162 744 l 1,0,-1
-9 891 m 1,10,-1
 404 891 l 1,11,-1
 404 -155 l 1,12,-1
 -9 -155 l 1,13,-1
 -9 891 l 1,10,-1
EndSplineSet
Validated: 5
EndChar

StartChar: two
Encoding: 50 50 15
Width: 568
Flags: W
LayerCount: 2
Fore
SplineSet
446 354 m 1,0,1
 478 388 478 388 495.5 427 c 128,-1,2
 513 466 513 466 513 514 c 0,3,4
 513 551 513 551 503 582 c 0,5,6
 492 617 492 617 471 647 c 128,-1,7
 450 677 450 677 421 698.5 c 128,-1,8
 392 720 392 720 357 732 c 128,-1,9
 322 744 322 744 283 744 c 0,10,11
 236 744 236 744 195 726 c 128,-1,12
 154 708 154 708 124 676.5 c 128,-1,13
 94 645 94 645 77 603 c 128,-1,14
 60 561 60 561 60 514 c 1,15,-1
 219 514 l 1,16,17
 219 524 219 524 222.5 536 c 128,-1,18
 226 548 226 548 233.5 558.5 c 128,-1,19
 241 569 241 569 254 575.5 c 128,-1,20
 267 582 267 582 286 582 c 0,21,22
 307 582 307 582 322 566.5 c 128,-1,23
 337 551 337 551 343 532 c 1,24,25
 345 522 345 522 345 514 c 0,26,27
 345 495 345 495 336 482 c 1,28,-1
 64 168 l 1,29,-1
 64 0 l 1,30,-1
 511 0 l 1,31,-1
 511 168 l 1,32,-1
 280 168 l 1,33,-1
 446 354 l 1,0,1
-9 891 m 1,34,-1
 576 891 l 1,35,-1
 576 -155 l 1,36,-1
 -9 -155 l 1,37,-1
 -9 891 l 1,34,-1
EndSplineSet
Validated: 1
EndChar

StartChar: three
Encoding: 51 51 16
Width: 551
Flags: W
LayerCount: 2
Fore
SplineSet
502 231 m 0,0,1
 502 272 502 272 488.5 307.5 c 128,-1,2
 475 343 475 343 451 372 c 1,3,4
 475 401 475 401 488.5 437 c 128,-1,5
 502 473 502 473 502 514 c 0,6,7
 502 551 502 551 492 582 c 0,8,9
 481 617 481 617 460 647 c 128,-1,10
 439 677 439 677 410 698.5 c 128,-1,11
 381 720 381 720 346 732 c 128,-1,12
 311 744 311 744 272 744 c 0,13,14
 224 744 224 744 182.5 726 c 128,-1,15
 141 708 141 708 109.5 676.5 c 128,-1,16
 78 645 78 645 60 603 c 128,-1,17
 42 561 42 561 42 514 c 1,18,-1
 210 514 l 1,19,20
 210 540 210 540 228 558 c 128,-1,21
 246 576 246 576 272 576 c 0,22,23
 293 576 293 576 309 563.5 c 128,-1,24
 325 551 325 551 331 532 c 0,25,26
 334 524 334 524 334 514 c 0,27,28
 334 488 334 488 316 466 c 128,-1,29
 298 444 298 444 272 444 c 2,30,-1
 224 444 l 1,31,-1
 224 300 l 1,32,-1
 272 300 l 2,33,34
 298 300 298 300 316 278 c 128,-1,35
 334 256 334 256 334 230 c 0,36,37
 334 219 334 219 331 212 c 0,38,39
 325 193 325 193 309 180.5 c 128,-1,40
 293 168 293 168 272 168 c 0,41,42
 246 168 246 168 228 186.5 c 128,-1,43
 210 205 210 205 210 231 c 1,44,-1
 97 231 l 1,45,-1
 42 231 l 1,46,47
 42 183 42 183 60 141 c 128,-1,48
 78 99 78 99 109.5 67.5 c 128,-1,49
 141 36 141 36 182.5 18 c 128,-1,50
 224 0 224 0 272 0 c 0,51,52
 311 0 311 0 346 12 c 128,-1,53
 381 24 381 24 410 45.5 c 128,-1,54
 439 67 439 67 460 97 c 128,-1,55
 481 127 481 127 492 162 c 0,56,57
 502 193 502 193 502 231 c 0,0,1
-9 891 m 1,58,-1
 556 891 l 1,59,-1
 556 -155 l 1,60,-1
 -9 -155 l 1,61,-1
 -9 891 l 1,58,-1
EndSplineSet
Validated: 1
EndChar

StartChar: four
Encoding: 52 52 17
Width: 588
Flags: W
LayerCount: 2
Fore
SplineSet
455 356 m 1,0,-1
 455 744 l 1,1,-1
 287 744 l 1,2,-1
 287 742 l 1,3,-1
 42 356 l 1,4,-1
 42 356 l 1,5,-1
 42 188 l 1,6,-1
 287 188 l 1,7,-1
 287 0 l 1,8,-1
 455 0 l 1,9,-1
 455 188 l 1,10,-1
 545 188 l 1,11,-1
 545 356 l 1,12,-1
 455 356 l 1,0,-1
-9 891 m 1,13,-1
 596 891 l 1,14,-1
 596 -155 l 1,15,-1
 -9 -155 l 1,16,-1
 -9 891 l 1,13,-1
EndSplineSet
Validated: 5
EndChar

StartChar: five
Encoding: 53 53 18
Width: 562
Flags: W
LayerCount: 2
Fore
SplineSet
511 742 m 1,0,-1
 65 742 l 1,1,-1
 65 297 l 1,2,-1
 233 297 l 1,3,4
 233 323 233 323 252.5 341 c 128,-1,5
 272 359 272 359 298 359 c 0,6,7
 329 359 329 359 345 340 c 128,-1,8
 361 321 361 321 361 297 c 2,9,-1
 361 224 l 2,10,11
 361 198 361 198 342.5 182.5 c 128,-1,12
 324 167 324 167 298 167 c 256,13,14
 272 167 272 167 252.5 185.5 c 128,-1,15
 233 204 233 204 233 230 c 1,16,-1
 65 230 l 1,17,18
 65 182 65 182 83 140 c 128,-1,19
 101 98 101 98 132.5 66.5 c 128,-1,20
 164 35 164 35 205.5 17 c 128,-1,21
 247 -1 247 -1 295 -1 c 0,22,23
 342 -1 342 -1 384 14 c 128,-1,24
 426 29 426 29 457.5 57 c 128,-1,25
 489 85 489 85 507 123.5 c 128,-1,26
 525 162 525 162 525 210 c 2,27,-1
 525 277 l 1,28,-1
 525 280 l 1,29,-1
 525 308 l 2,30,31
 525 344 525 344 512.5 381.5 c 128,-1,32
 500 419 500 419 473.5 449 c 128,-1,33
 447 479 447 479 405.5 498 c 128,-1,34
 364 517 364 517 305 517 c 0,35,36
 297 517 297 517 286 515.5 c 128,-1,37
 275 514 275 514 264.5 510 c 128,-1,38
 254 506 254 506 245 500.5 c 128,-1,39
 236 495 236 495 233 488 c 1,40,-1
 233 574 l 1,41,-1
 511 574 l 1,42,-1
 511 742 l 1,0,-1
-9 891 m 1,43,-1
 566 891 l 1,44,-1
 566 -155 l 1,45,-1
 -9 -155 l 1,46,-1
 -9 891 l 1,43,-1
EndSplineSet
Validated: 1
EndChar

StartChar: six
Encoding: 54 54 19
Width: 552
Flags: W
LayerCount: 2
Fore
SplineSet
504 230 m 2,0,1
 504 335 504 335 450 397 c 128,-1,2
 396 459 396 459 294 459 c 0,3,4
 286 459 286 459 274.5 455.5 c 128,-1,5
 263 452 263 452 251.5 447 c 128,-1,6
 240 442 240 442 231.5 434.5 c 128,-1,7
 223 427 223 427 221 420 c 1,8,-1
 221 526 l 1,9,-1
 222 526 l 1,10,11
 222 552 222 552 240 570.5 c 128,-1,12
 258 589 258 589 284 589 c 256,13,14
 310 589 310 589 328 570.5 c 128,-1,15
 346 552 346 552 346 526 c 1,16,-1
 504 526 l 1,17,18
 504 574 504 574 487.5 614.5 c 128,-1,19
 471 655 471 655 441.5 684.5 c 128,-1,20
 412 714 412 714 371.5 730.5 c 128,-1,21
 331 747 331 747 284 747 c 0,22,23
 231 747 231 747 188 727.5 c 128,-1,24
 145 708 145 708 115 676 c 128,-1,25
 85 644 85 644 69 602.5 c 128,-1,26
 53 561 53 561 53 518 c 2,27,-1
 53 212 l 2,28,29
 53 166 53 166 69 127 c 128,-1,30
 85 88 85 88 114.5 59.5 c 128,-1,31
 144 31 144 31 187 15 c 128,-1,32
 230 -1 230 -1 284 -1 c 256,33,34
 338 -1 338 -1 379 17 c 128,-1,35
 420 35 420 35 447.5 66.5 c 128,-1,36
 475 98 475 98 489.5 139.5 c 128,-1,37
 504 181 504 181 504 229 c 2,38,-1
 504 230 l 2,0,1
-9 891 m 1,39,-1
 556 891 l 1,40,-1
 556 -155 l 1,41,-1
 -9 -155 l 1,42,-1
 -9 891 l 1,39,-1
EndSplineSet
Validated: 1
EndChar

StartChar: seven
Encoding: 55 55 20
Width: 562
Flags: W
LayerCount: 2
Fore
SplineSet
45 744 m 1,0,-1
 45 566 l 1,1,-1
 339 566 l 1,2,-1
 39 0 l 1,3,-1
 217 0 l 1,4,-1
 518 566 l 1,5,-1
 518 744 l 1,6,-1
 45 744 l 1,0,-1
-9 891 m 1,7,-1
 566 891 l 1,8,-1
 566 -155 l 1,9,-1
 -9 -155 l 1,10,-1
 -9 891 l 1,7,-1
EndSplineSet
Validated: 1
EndChar

StartChar: eight
Encoding: 56 56 21
Width: 552
Flags: W
LayerCount: 2
Fore
SplineSet
503 240 m 2,0,1
 503 261 503 261 496 283.5 c 128,-1,2
 489 306 489 306 478.5 327.5 c 128,-1,3
 468 349 468 349 455.5 368.5 c 128,-1,4
 443 388 443 388 431 402 c 1,5,6
 455 431 455 431 474 466.5 c 128,-1,7
 493 502 493 502 493 544 c 2,8,-1
 493 545 l 2,9,10
 493 592 493 592 476 629 c 128,-1,11
 459 666 459 666 430 691.5 c 128,-1,12
 401 717 401 717 360.5 730.5 c 128,-1,13
 320 744 320 744 273 744 c 256,14,15
 226 744 226 744 185.5 730.5 c 128,-1,16
 145 717 145 717 116 691.5 c 128,-1,17
 87 666 87 666 70 629 c 128,-1,18
 53 592 53 592 53 545 c 2,19,-1
 53 544 l 2,20,21
 53 502 53 502 72 466.5 c 128,-1,22
 91 431 91 431 115 402 c 1,23,24
 103 388 103 388 90 368.5 c 128,-1,25
 77 349 77 349 66.5 327.5 c 128,-1,26
 56 306 56 306 49.5 283.5 c 128,-1,27
 43 261 43 261 43 240 c 2,28,-1
 43 239 l 2,29,30
 43 186 43 186 59.5 142 c 128,-1,31
 76 98 76 98 106 66.5 c 128,-1,32
 136 35 136 35 178.5 17.5 c 128,-1,33
 221 0 221 0 273 0 c 256,34,35
 325 0 325 0 367.5 18 c 128,-1,36
 410 36 410 36 440 68 c 128,-1,37
 470 100 470 100 486.5 144 c 128,-1,38
 503 188 503 188 503 239 c 2,39,-1
 503 240 l 2,0,1
-9 891 m 1,40,-1
 556 891 l 1,41,-1
 556 -155 l 1,42,-1
 -9 -155 l 1,43,-1
 -9 891 l 1,40,-1
EndSplineSet
Validated: 1
EndChar

StartChar: nine
Encoding: 57 57 22
Width: 552
Flags: W
LayerCount: 2
Fore
SplineSet
55 517 m 2,0,1
 55 412 55 412 109 350 c 128,-1,2
 163 288 163 288 265 288 c 0,3,4
 273 288 273 288 284.5 291.5 c 128,-1,5
 296 295 296 295 307.5 300 c 128,-1,6
 319 305 319 305 327.5 312 c 128,-1,7
 336 319 336 319 338 327 c 1,8,-1
 338 221 l 1,9,-1
 337 221 l 1,10,11
 337 195 337 195 319 176.5 c 128,-1,12
 301 158 301 158 275 158 c 256,13,14
 249 158 249 158 231 176.5 c 128,-1,15
 213 195 213 195 213 221 c 1,16,-1
 55 221 l 1,17,18
 55 173 55 173 71.5 132.5 c 128,-1,19
 88 92 88 92 117.5 62.5 c 128,-1,20
 147 33 147 33 187.5 16.5 c 128,-1,21
 228 0 228 0 275 0 c 0,22,23
 341 0 341 0 385 19.5 c 128,-1,24
 429 39 429 39 456 71 c 128,-1,25
 483 103 483 103 494.5 144 c 128,-1,26
 506 185 506 185 506 229 c 2,27,-1
 506 535 l 2,28,29
 506 581 506 581 490 620 c 128,-1,30
 474 659 474 659 444.5 687.5 c 128,-1,31
 415 716 415 716 372 732 c 128,-1,32
 329 748 329 748 275 748 c 256,33,34
 221 748 221 748 180 730 c 128,-1,35
 139 712 139 712 111.5 680.5 c 128,-1,36
 84 649 84 649 69.5 607.5 c 128,-1,37
 55 566 55 566 55 518 c 2,38,-1
 55 517 l 2,0,1
-9 891 m 1,39,-1
 556 891 l 1,40,-1
 556 -155 l 1,41,-1
 -9 -155 l 1,42,-1
 -9 891 l 1,39,-1
EndSplineSet
Validated: 1
EndChar

StartChar: dollar
Encoding: 36 36 23
Width: 495
Flags: W
LayerCount: 2
Fore
SplineSet
246 462 m 1,0,1
 234 464 234 464 226 473.5 c 128,-1,2
 218 483 218 483 218 495 c 0,3,4
 218 509 218 509 228 519.5 c 128,-1,5
 238 530 238 530 252 530 c 256,6,7
 266 530 266 530 276 519.5 c 128,-1,8
 286 509 286 509 286 495 c 1,9,-1
 452 495 l 1,10,11
 452 553 452 553 423 600 c 128,-1,12
 394 647 394 647 346 673 c 1,13,-1
 346 749 l 1,14,-1
 178 749 l 1,15,-1
 178 682 l 1,16,17
 122 659 122 659 87 609 c 128,-1,18
 52 559 52 559 52 495 c 0,19,20
 52 454 52 454 68 417.5 c 128,-1,21
 84 381 84 381 111 354 c 128,-1,22
 138 327 138 327 174.5 311 c 128,-1,23
 211 295 211 295 252 295 c 2,24,-1
 258 295 l 1,25,26
 270 293 270 293 278 284 c 128,-1,27
 286 275 286 275 286 262 c 0,28,29
 286 248 286 248 276 238 c 128,-1,30
 266 228 266 228 252 228 c 256,31,32
 238 228 238 228 228 238 c 128,-1,33
 218 248 218 248 218 262 c 1,34,-1
 52 262 l 1,35,36
 52 230 52 230 61.5 201.5 c 128,-1,37
 71 173 71 173 87.5 148.5 c 128,-1,38
 104 124 104 124 127 105.5 c 128,-1,39
 150 87 150 87 178 76 c 1,40,-1
 178 0 l 1,41,-1
 346 0 l 1,42,-1
 346 85 l 1,43,44
 394 111 394 111 423 157.5 c 128,-1,45
 452 204 452 204 452 262 c 0,46,47
 452 303 452 303 436 339.5 c 128,-1,48
 420 376 420 376 393 403 c 128,-1,49
 366 430 366 430 329.5 446 c 128,-1,50
 293 462 293 462 252 462 c 2,51,-1
 246 462 l 1,0,1
-9 891 m 1,52,-1
 500 891 l 1,53,-1
 500 -155 l 1,54,-1
 -9 -155 l 1,55,-1
 -9 891 l 1,52,-1
EndSplineSet
Validated: 1
EndChar

StartChar: at
Encoding: 64 64 24
Width: 780
Flags: W
LayerCount: 2
Fore
SplineSet
378 165 m 256,0,1
 353 165 353 165 328 179 c 128,-1,2
 303 193 303 193 282.5 215 c 128,-1,3
 262 237 262 237 249.5 264.5 c 128,-1,4
 237 292 237 292 237 319 c 2,5,-1
 237 414 l 2,6,7
 237 441 237 441 249.5 470 c 128,-1,8
 262 499 262 499 282.5 522.5 c 128,-1,9
 303 546 303 546 328 561 c 128,-1,10
 353 576 353 576 378 576 c 0,11,12
 442 576 442 576 476 544 c 128,-1,13
 510 512 510 512 517 459 c 1,14,15
 503 477 503 477 491.5 491 c 128,-1,16
 480 505 480 505 465.5 514.5 c 128,-1,17
 451 524 451 524 430 529.5 c 128,-1,18
 409 535 409 535 376 535 c 0,19,20
 361 535 361 535 343 527 c 128,-1,21
 325 519 325 519 309 502 c 128,-1,22
 293 485 293 485 282.5 459.5 c 128,-1,23
 272 434 272 434 272 400 c 2,24,-1
 272 342 l 2,25,26
 272 320 272 320 279 296.5 c 128,-1,27
 286 273 286 273 300 254 c 128,-1,28
 314 235 314 235 335 222.5 c 128,-1,29
 356 210 356 210 385 210 c 0,30,31
 418 210 418 210 441 219 c 128,-1,32
 464 228 464 228 479.5 239 c 128,-1,33
 495 250 495 250 502.5 258.5 c 128,-1,34
 510 267 510 267 512 267 c 0,35,36
 513 267 513 267 525.5 256.5 c 128,-1,37
 538 246 538 246 557.5 240 c 128,-1,38
 577 234 577 234 601 239 c 128,-1,39
 625 244 625 244 651 274 c 0,40,41
 662 287 662 287 669.5 307.5 c 128,-1,42
 677 328 677 328 681 351 c 128,-1,43
 685 374 685 374 686.5 397 c 128,-1,44
 688 420 688 420 688 438 c 0,45,46
 688 441 688 441 688.5 438.5 c 128,-1,47
 689 436 689 436 688 438 c 1,48,49
 688 496 688 496 667 551.5 c 128,-1,50
 646 607 646 607 606 649.5 c 128,-1,51
 566 692 566 692 508.5 718 c 128,-1,52
 451 744 451 744 378 744 c 2,53,-1
 377 744 l 2,54,55
 308 744 308 744 253 718.5 c 128,-1,56
 198 693 198 693 159.5 651 c 128,-1,57
 121 609 121 609 100.5 555.5 c 128,-1,58
 80 502 80 502 79 447 c 1,59,-1
 79 293 l 1,60,61
 82 235 82 235 100.5 181.5 c 128,-1,62
 119 128 119 128 155 87.5 c 128,-1,63
 191 47 191 47 246 23 c 128,-1,64
 301 -1 301 -1 377 -1 c 2,65,-1
 378 -1 l 2,66,67
 412 -1 412 -1 448 6.5 c 128,-1,68
 484 14 484 14 517 26.5 c 128,-1,69
 550 39 550 39 577.5 54.5 c 128,-1,70
 605 70 605 70 622 87 c 1,71,-1
 521 213 l 1,72,73
 502 200 502 200 486.5 191 c 128,-1,74
 471 182 471 182 455.5 176 c 128,-1,75
 440 170 440 170 421.5 167.5 c 128,-1,76
 403 165 403 165 378 165 c 256,0,1
-2 891 m 1,77,-1
 787 891 l 1,78,-1
 787 -155 l 1,79,-1
 -2 -155 l 1,80,-1
 -2 891 l 1,77,-1
EndSplineSet
Validated: 37
EndChar

StartChar: numbersign
Encoding: 35 35 25
Width: 835
Flags: W
LayerCount: 2
Fore
SplineSet
-9 891 m 1,0,-1
 843 891 l 1,1,-1
 843 -155 l 1,2,-1
 -9 -155 l 1,3,-1
 -9 891 l 1,0,-1
491 744 m 1,4,-1
 478 583 l 1,5,-1
 386 583 l 1,6,-1
 399 744 l 1,7,-1
 231 744 l 1,8,-1
 218 583 l 1,9,-1
 95 583 l 1,10,-1
 80 415 l 1,11,-1
 204 415 l 1,12,-1
 199 353 l 1,13,-1
 75 353 l 1,14,-1
 60 185 l 1,15,-1
 186 185 l 1,16,-1
 171 0 l 1,17,-1
 339 0 l 1,18,-1
 354 185 l 1,19,-1
 446 185 l 1,20,-1
 431 0 l 1,21,-1
 599 0 l 1,22,-1
 614 185 l 1,23,-1
 754 185 l 1,24,-1
 769 353 l 1,25,-1
 627 353 l 1,26,-1
 632 415 l 1,27,-1
 774 415 l 1,28,-1
 789 583 l 1,29,-1
 646 583 l 1,30,-1
 659 744 l 1,31,-1
 491 744 l 1,4,-1
372 415 m 1,32,-1
 464 415 l 1,33,-1
 459 353 l 1,34,-1
 367 353 l 1,35,-1
 372 415 l 1,32,-1
EndSplineSet
Validated: 1
EndChar

StartChar: parenleft
Encoding: 40 40 26
Width: 375
Flags: W
LayerCount: 2
Fore
SplineSet
149 744 m 1,0,1
 94 648 94 648 71.5 555.5 c 128,-1,2
 49 463 49 463 48 380.5 c 128,-1,3
 47 298 47 298 62 228 c 128,-1,4
 77 158 77 158 95 107.5 c 128,-1,5
 113 57 113 57 129.5 28.5 c 128,-1,6
 146 0 146 0 149 0 c 2,7,-1
 327 0 l 1,8,9
 256 106 256 106 226 227 c 0,10,11
 213 279 213 279 208.5 339 c 128,-1,12
 204 399 204 399 213.5 464.5 c 128,-1,13
 223 530 223 530 249.5 600.5 c 128,-1,14
 276 671 276 671 327 744 c 1,15,-1
 149 744 l 1,0,1
-9 891 m 1,16,-1
 383 891 l 1,17,-1
 383 -155 l 1,18,-1
 -9 -155 l 1,19,-1
 -9 891 l 1,16,-1
EndSplineSet
Validated: 33
EndChar

StartChar: parenright
Encoding: 41 41 27
Width: 375
Flags: W
LayerCount: 2
Fore
SplineSet
233 0 m 1,0,1
 288 96 288 96 310.5 188.5 c 128,-1,2
 333 281 333 281 334 363.5 c 128,-1,3
 335 446 335 446 320 516 c 128,-1,4
 305 586 305 586 287 636.5 c 128,-1,5
 269 687 269 687 252.5 715.5 c 128,-1,6
 236 744 236 744 233 744 c 2,7,-1
 55 744 l 1,8,9
 126 638 126 638 156 517 c 0,10,11
 169 465 169 465 173.5 405 c 128,-1,12
 178 345 178 345 168.5 279 c 128,-1,13
 159 213 159 213 132 142.5 c 128,-1,14
 105 72 105 72 55 0 c 1,15,-1
 233 0 l 1,0,1
-9 891 m 1,16,-1
 383 891 l 1,17,-1
 383 -155 l 1,18,-1
 -9 -155 l 1,19,-1
 -9 891 l 1,16,-1
EndSplineSet
Validated: 33
EndChar

StartChar: slash
Encoding: 47 47 28
Width: 486
Flags: W
LayerCount: 2
Fore
SplineSet
448 744 m 1,0,-1
 280 744 l 1,1,-1
 50 0 l 1,2,-1
 218 0 l 1,3,-1
 448 744 l 1,0,-1
-9 891 m 1,4,-1
 493 891 l 1,5,-1
 493 -155 l 1,6,-1
 -9 -155 l 1,7,-1
 -9 891 l 1,4,-1
EndSplineSet
Validated: 1
EndChar

StartChar: less
Encoding: 60 60 29
Width: 631
Flags: W
LayerCount: 2
Fore
SplineSet
558 744 m 1,0,-1
 360 744 l 1,1,-1
 60 380 l 1,2,-1
 360 0 l 1,3,-1
 558 0 l 1,4,-1
 258 382 l 1,5,-1
 558 744 l 1,0,-1
-9 891 m 1,6,-1
 638 891 l 1,7,-1
 638 -155 l 1,8,-1
 -9 -155 l 1,9,-1
 -9 891 l 1,6,-1
EndSplineSet
Validated: 1
EndChar

StartChar: greater
Encoding: 62 62 30
Width: 632
Flags: W
LayerCount: 2
Fore
SplineSet
73 0 m 1,0,-1
 271 0 l 1,1,-1
 571 364 l 1,2,-1
 271 744 l 1,3,-1
 73 744 l 1,4,-1
 373 362 l 1,5,-1
 73 0 l 1,0,-1
-9 891 m 1,6,-1
 638 891 l 1,7,-1
 638 -155 l 1,8,-1
 -9 -155 l 1,9,-1
 -9 891 l 1,6,-1
EndSplineSet
Validated: 1
EndChar

StartChar: backslash
Encoding: 92 92 31
Width: 484
Flags: W
LayerCount: 2
Fore
SplineSet
279 0 m 1,0,-1
 447 0 l 1,1,-1
 216 746 l 1,2,-1
 48 746 l 1,3,-1
 279 0 l 1,0,-1
-9 891 m 1,4,-1
 488 891 l 1,5,-1
 488 -155 l 1,6,-1
 -9 -155 l 1,7,-1
 -9 891 l 1,4,-1
EndSplineSet
Validated: 1
EndChar

StartChar: bracketleft
Encoding: 91 91 32
Width: 453
Flags: W
LayerCount: 2
Fore
SplineSet
58 744 m 1,0,-1
 58 0 l 1,1,-1
 394 0 l 1,2,-1
 394 157 l 1,3,-1
 226 157 l 1,4,-1
 226 587 l 1,5,-1
 394 587 l 1,6,-1
 394 744 l 1,7,-1
 58 744 l 1,0,-1
-9 891 m 1,8,-1
 458 891 l 1,9,-1
 458 -155 l 1,10,-1
 -9 -155 l 1,11,-1
 -9 891 l 1,8,-1
EndSplineSet
Validated: 1
EndChar

StartChar: bracketright
Encoding: 93 93 33
Width: 451
Flags: W
LayerCount: 2
Fore
SplineSet
387 0 m 1,0,-1
 387 744 l 1,1,-1
 51 744 l 1,2,-1
 51 587 l 1,3,-1
 219 587 l 1,4,-1
 219 157 l 1,5,-1
 51 157 l 1,6,-1
 51 0 l 1,7,-1
 387 0 l 1,0,-1
-9 891 m 1,8,-1
 458 891 l 1,9,-1
 458 -155 l 1,10,-1
 -9 -155 l 1,11,-1
 -9 891 l 1,8,-1
EndSplineSet
Validated: 1
EndChar

StartChar: underscore
Encoding: 95 95 34
Width: 608
Flags: W
LayerCount: 2
Fore
SplineSet
566 -48 m 1,0,-1
 566 70 l 1,1,-1
 49 70 l 1,2,-1
 49 -48 l 1,3,-1
 566 -48 l 1,0,-1
-9 891 m 1,4,-1
 618 891 l 1,5,-1
 618 -155 l 1,6,-1
 -9 -155 l 1,7,-1
 -9 891 l 1,4,-1
EndSplineSet
Validated: 1
EndChar

StartChar: bar
Encoding: 124 124 35
Width: 478
Flags: W
LayerCount: 2
Fore
SplineSet
318 744 m 1,0,-1
 150 744 l 1,1,-1
 150 -7 l 1,2,-1
 318 -7 l 1,3,-1
 318 744 l 1,0,-1
-9 891 m 1,4,-1
 488 891 l 1,5,-1
 488 -155 l 1,6,-1
 -9 -155 l 1,7,-1
 -9 891 l 1,4,-1
EndSplineSet
Validated: 1
EndChar

StartChar: bullet
Encoding: 8226 8226 36
Width: 283
Flags: W
LayerCount: 2
Fore
SplineSet
217 315 m 1,0,-1
 217 453 l 1,1,-1
 80 453 l 1,2,-1
 80 315 l 1,3,-1
 217 315 l 1,0,-1
-9 891 m 1,4,-1
 293 891 l 1,5,-1
 293 -155 l 1,6,-1
 -9 -155 l 1,7,-1
 -9 891 l 1,4,-1
EndSplineSet
Validated: 1
EndChar

StartChar: endash
Encoding: 8211 8211 37
Width: 651
Flags: W
LayerCount: 2
Fore
SplineSet
580 301 m 1,0,-1
 580 469 l 1,1,-1
 63 469 l 1,2,-1
 63 301 l 1,3,-1
 580 301 l 1,0,-1
-9 891 m 1,4,-1
 654 891 l 1,5,-1
 654 -155 l 1,6,-1
 -9 -155 l 1,7,-1
 -9 891 l 1,4,-1
EndSplineSet
Validated: 1
EndChar

StartChar: emdash
Encoding: 8212 8212 38
Width: 812
Flags: W
LayerCount: 2
Fore
SplineSet
743 301 m 1,0,-1
 743 469 l 1,1,-1
 76 469 l 1,2,-1
 76 301 l 1,3,-1
 743 301 l 1,0,-1
-9 891 m 1,4,-1
 818 891 l 1,5,-1
 818 -155 l 1,6,-1
 -9 -155 l 1,7,-1
 -9 891 l 1,4,-1
EndSplineSet
Validated: 1
EndChar

StartChar: fraction
Encoding: 8260 8260 39
Width: 483
Flags: W
LayerCount: 2
Fore
SplineSet
432 744 m 1,0,-1
 264 744 l 1,1,-1
 34 0 l 1,2,-1
 202 0 l 1,3,-1
 432 744 l 1,0,-1
-9 821 m 1,4,-1
 488 821 l 1,5,-1
 488 -85 l 1,6,-1
 -9 -85 l 1,7,-1
 -9 821 l 1,4,-1
EndSplineSet
Validated: 1
EndChar

StartChar: a
Encoding: 97 97 40
Width: 782
Flags: W
LayerCount: 2
Fore
SplineSet
520 0 m 1,0,-1
 711 0 l 1,1,-1
 493 744 l 1,2,-1
 269 744 l 1,3,-1
 51 0 l 1,4,-1
 242 0 l 1,5,-1
 308 196 l 1,6,-1
 453 196 l 1,7,-1
 520 0 l 1,0,-1
-2 891 m 1,8,-1
 792 891 l 1,9,-1
 792 -155 l 1,10,-1
 -2 -155 l 1,11,-1
 -2 891 l 1,8,-1
EndSplineSet
Validated: 1
EndChar

StartChar: b
Encoding: 98 98 41
Width: 540
Flags: W
LayerCount: 2
Fore
SplineSet
336 391 m 1,0,1
 354 391 354 391 374 404 c 128,-1,2
 394 417 394 417 410.5 440 c 128,-1,3
 427 463 427 463 437.5 495 c 128,-1,4
 448 527 448 527 448 566 c 0,5,6
 448 603 448 603 435 635 c 128,-1,7
 422 667 422 667 396 691 c 128,-1,8
 370 715 370 715 329 729 c 128,-1,9
 288 743 288 743 233 743 c 2,10,-1
 228 743 l 1,11,-1
 238 743 l 1,12,-1
 60 743 l 1,13,-1
 60 -1 l 1,14,-1
 298 -1 l 1,15,-1
 303 -1 l 2,16,17
 352 -1 352 -1 389 15.5 c 128,-1,18
 426 32 426 32 450.5 60.5 c 128,-1,19
 475 89 475 89 487.5 126 c 128,-1,20
 500 163 500 163 500 204 c 0,21,22
 500 232 500 232 491 265 c 128,-1,23
 482 298 482 298 462.5 326 c 128,-1,24
 443 354 443 354 412 372.5 c 128,-1,25
 381 391 381 391 336 391 c 1,0,1
-3 891 m 1,26,-1
 550 891 l 1,27,-1
 550 -155 l 1,28,-1
 -3 -155 l 1,29,-1
 -3 891 l 1,26,-1
EndSplineSet
Validated: 5
EndChar

StartChar: c
Encoding: 99 99 42
Width: 656
Flags: W
LayerCount: 2
Fore
SplineSet
328 165 m 0,0,1
 277 169 277 169 246 206.5 c 128,-1,2
 215 244 215 244 215 299 c 2,3,-1
 215 444 l 2,4,5
 215 499 215 499 245.5 535.5 c 128,-1,6
 276 572 276 572 327 576 c 0,7,8
 348 577 348 577 367 568 c 128,-1,9
 386 559 386 559 401 544 c 128,-1,10
 416 529 416 529 426.5 510 c 128,-1,11
 437 491 437 491 443 473 c 1,12,-1
 588 554 l 1,13,14
 577 588 577 588 557.5 622 c 128,-1,15
 538 656 538 656 506.5 683 c 128,-1,16
 475 710 475 710 431 727 c 128,-1,17
 387 744 387 744 326 744 c 2,18,-1
 325 744 l 2,19,20
 256 744 256 744 204 718.5 c 128,-1,21
 152 693 152 693 117.5 651 c 128,-1,22
 83 609 83 609 65.5 555.5 c 128,-1,23
 48 502 48 502 47 447 c 1,24,-1
 47 293 l 1,25,26
 50 235 50 235 65 181.5 c 128,-1,27
 80 128 80 128 112.5 87.5 c 128,-1,28
 145 47 145 47 196.5 23 c 128,-1,29
 248 -1 248 -1 324 -1 c 2,30,-1
 325 -1 l 2,31,32
 393 -1 393 -1 439.5 18.5 c 128,-1,33
 486 38 486 38 516 65 c 128,-1,34
 546 92 546 92 562.5 120 c 128,-1,35
 579 148 579 148 588 166 c 1,36,-1
 443 247 l 1,37,38
 428 212 428 212 399.5 187 c 128,-1,39
 371 162 371 162 328 165 c 0,0,1
-5 891 m 1,40,-1
 664 891 l 1,41,-1
 664 -155 l 1,42,-1
 -5 -155 l 1,43,-1
 -5 891 l 1,40,-1
EndSplineSet
Validated: 33
EndChar

StartChar: d
Encoding: 100 100 43
Width: 649
Flags: W
LayerCount: 2
Fore
SplineSet
571 372 m 0,0,1
 571 451 571 451 549 519.5 c 128,-1,2
 527 588 527 588 483 637.5 c 128,-1,3
 439 687 439 687 373 715.5 c 128,-1,4
 307 744 307 744 220 744 c 2,5,-1
 70 744 l 1,6,-1
 70 0 l 1,7,-1
 220 0 l 1,8,-1
 242 0 l 2,9,10
 333 0 333 0 396 30 c 128,-1,11
 459 60 459 60 498 111 c 128,-1,12
 537 162 537 162 554 229.5 c 128,-1,13
 571 297 571 297 571 372 c 0,0,1
-4 891 m 1,14,-1
 656 891 l 1,15,-1
 656 -155 l 1,16,-1
 -4 -155 l 1,17,-1
 -4 891 l 1,14,-1
EndSplineSet
Validated: 1
EndChar

StartChar: e
Encoding: 101 101 44
Width: 571
Flags: W
LayerCount: 2
Fore
SplineSet
516 744 m 1,0,-1
 60 744 l 1,1,-1
 60 0 l 1,2,-1
 516 0 l 1,3,-1
 516 168 l 1,4,-1
 228 168 l 1,5,-1
 228 288 l 1,6,-1
 440 288 l 1,7,-1
 440 456 l 1,8,-1
 228 456 l 1,9,-1
 228 576 l 1,10,-1
 516 576 l 1,11,-1
 516 744 l 1,0,-1
-4 891 m 1,12,-1
 581 891 l 1,13,-1
 581 -155 l 1,14,-1
 -4 -155 l 1,15,-1
 -4 891 l 1,12,-1
EndSplineSet
Validated: 1
EndChar

StartChar: f
Encoding: 102 102 45
Width: 542
Flags: W
LayerCount: 2
Fore
SplineSet
502 744 m 1,0,-1
 46 744 l 1,1,-1
 46 0 l 1,2,-1
 214 0 l 1,3,-1
 214 288 l 1,4,-1
 426 288 l 1,5,-1
 426 456 l 1,6,-1
 214 456 l 1,7,-1
 214 576 l 1,8,-1
 502 576 l 1,9,-1
 502 744 l 1,0,-1
-4 891 m 1,10,-1
 546 891 l 1,11,-1
 546 -155 l 1,12,-1
 -4 -155 l 1,13,-1
 -4 891 l 1,10,-1
EndSplineSet
Validated: 1
EndChar

StartChar: g
Encoding: 103 103 46
Width: 669
Flags: W
LayerCount: 2
Fore
SplineSet
340 398 m 1,0,-1
 340 254 l 1,1,-1
 419 254 l 1,2,-1
 419 217 l 1,3,4
 408 197 408 197 386.5 184 c 128,-1,5
 365 171 365 171 330 172 c 0,6,7
 305 172 305 172 284 182 c 128,-1,8
 263 192 263 192 247.5 208.5 c 128,-1,9
 232 225 232 225 223 248.5 c 128,-1,10
 214 272 214 272 214 299 c 2,11,-1
 214 444 l 2,12,13
 214 499 214 499 243.5 532.5 c 128,-1,14
 273 566 273 566 323 566 c 0,15,16
 349 566 349 566 366 557.5 c 128,-1,17
 383 549 383 549 394.5 537 c 128,-1,18
 406 525 406 525 412.5 511 c 128,-1,19
 419 497 419 497 424 486 c 1,20,-1
 562 577 l 1,21,22
 552 592 552 592 539 619 c 128,-1,23
 526 646 526 646 500.5 673 c 128,-1,24
 475 700 475 700 432.5 720.5 c 128,-1,25
 390 741 390 741 322 744 c 1,26,-1
 321 744 l 2,27,28
 253 744 253 744 201 720 c 128,-1,29
 149 696 149 696 114 655.5 c 128,-1,30
 79 615 79 615 61 561 c 128,-1,31
 43 507 43 507 43 447 c 2,32,-1
 43 293 l 1,33,34
 45 229 45 229 64 175 c 128,-1,35
 83 121 83 121 117.5 82 c 128,-1,36
 152 43 152 43 203 21 c 128,-1,37
 254 -1 254 -1 321 -1 c 2,38,-1
 322 -1 l 2,39,40
 365 -1 365 -1 404 10.5 c 128,-1,41
 443 22 443 22 475.5 41 c 128,-1,42
 508 60 508 60 534.5 85.5 c 128,-1,43
 561 111 561 111 580 138 c 1,44,-1
 580 398 l 1,45,-1
 340 398 l 1,0,-1
-4 891 m 1,46,-1
 675 891 l 1,47,-1
 675 -155 l 1,48,-1
 -4 -155 l 1,49,-1
 -4 891 l 1,46,-1
EndSplineSet
Validated: 33
EndChar

StartChar: h
Encoding: 104 104 47
Width: 647
Flags: W
LayerCount: 2
Fore
SplineSet
407 456 m 1,0,-1
 208 456 l 1,1,-1
 208 744 l 1,2,-1
 40 744 l 1,3,-1
 40 0 l 1,4,-1
 208 0 l 1,5,-1
 208 288 l 1,6,-1
 407 288 l 1,7,-1
 407 0 l 1,8,-1
 575 0 l 1,9,-1
 575 744 l 1,10,-1
 407 744 l 1,11,-1
 407 456 l 1,0,-1
-4 891 m 1,12,-1
 656 891 l 1,13,-1
 656 -155 l 1,14,-1
 -4 -155 l 1,15,-1
 -4 891 l 1,12,-1
EndSplineSet
Validated: 1
EndChar

StartChar: i
Encoding: 105 105 48
Width: 290
Flags: W
LayerCount: 2
Fore
SplineSet
228 744 m 1,0,-1
 60 744 l 1,1,-1
 60 0 l 1,2,-1
 228 0 l 1,3,-1
 228 744 l 1,0,-1
-4 891 m 1,4,-1
 296 891 l 1,5,-1
 296 -155 l 1,6,-1
 -4 -155 l 1,7,-1
 -4 891 l 1,4,-1
EndSplineSet
Validated: 1
EndChar

StartChar: j
Encoding: 106 106 49
Width: 601
Flags: W
LayerCount: 2
Fore
SplineSet
360 744 m 1,0,-1
 360 241 l 2,1,2
 360 215 360 215 343 196.5 c 128,-1,3
 326 178 326 178 300 178 c 256,4,5
 274 178 274 178 257.5 196.5 c 128,-1,6
 241 215 241 215 241 241 c 2,7,-1
 241 305 l 1,8,-1
 70 305 l 1,9,-1
 70 231 l 2,10,11
 70 173 70 173 88 129.5 c 128,-1,12
 106 86 106 86 137.5 57.5 c 128,-1,13
 169 29 169 29 210.5 14.5 c 128,-1,14
 252 0 252 0 300 0 c 0,15,16
 347 0 347 0 389 14 c 128,-1,17
 431 28 431 28 462.5 56.5 c 128,-1,18
 494 85 494 85 512.5 127.5 c 128,-1,19
 531 170 531 170 531 227 c 2,20,-1
 531 744 l 1,21,-1
 360 744 l 1,0,-1
-4 891 m 1,22,-1
 610 891 l 1,23,-1
 610 -155 l 1,24,-1
 -4 -155 l 1,25,-1
 -4 891 l 1,22,-1
EndSplineSet
Validated: 1
EndChar

StartChar: k
Encoding: 107 107 50
Width: 623
Flags: W
LayerCount: 2
Fore
SplineSet
349 744 m 1,0,-1
 228 571 l 1,1,-1
 228 744 l 1,2,-1
 60 744 l 1,3,-1
 60 0 l 1,4,-1
 228 0 l 1,5,-1
 228 161 l 1,6,-1
 348 0 l 1,7,-1
 556 0 l 1,8,-1
 280 371 l 1,9,-1
 557 744 l 1,10,-1
 349 744 l 1,0,-1
-4 891 m 1,11,-1
 630 891 l 1,12,-1
 630 -155 l 1,13,-1
 -4 -155 l 1,14,-1
 -4 891 l 1,11,-1
EndSplineSet
Validated: 1
EndChar

StartChar: l
Encoding: 108 108 51
Width: 492
Flags: W
LayerCount: 2
Fore
SplineSet
238 744 m 1,0,-1
 70 744 l 1,1,-1
 70 0 l 1,2,-1
 437 0 l 1,3,-1
 437 168 l 1,4,-1
 238 168 l 1,5,-1
 238 744 l 1,0,-1
-4 891 m 1,6,-1
 501 891 l 1,7,-1
 501 -155 l 1,8,-1
 -4 -155 l 1,9,-1
 -4 891 l 1,6,-1
EndSplineSet
Validated: 1
EndChar

StartChar: m
Encoding: 109 109 52
Width: 798
Flags: W
LayerCount: 2
Fore
SplineSet
560 744 m 1,0,-1
 560 744 l 1,1,-1
 405 312 l 1,2,-1
 251 744 l 1,3,-1
 80 744 l 1,4,-1
 80 0 l 1,5,-1
 258 0 l 1,6,-1
 258 268 l 1,7,-1
 351 0 l 1,8,-1
 459 0 l 1,9,-1
 550 260 l 1,10,-1
 550 0 l 1,11,-1
 728 0 l 1,12,-1
 728 744 l 1,13,-1
 728 744 l 1,14,-1
 560 744 l 1,0,-1
-4 891 m 1,15,-1
 804 891 l 1,16,-1
 804 -155 l 1,17,-1
 -4 -155 l 1,18,-1
 -4 891 l 1,15,-1
EndSplineSet
Validated: 5
EndChar

StartChar: n
Encoding: 110 110 53
Width: 652
Flags: W
LayerCount: 2
Fore
SplineSet
425 379 m 1,0,-1
 226 744 l 1,1,-1
 55 744 l 1,2,-1
 55 0 l 1,3,-1
 233 0 l 1,4,-1
 233 366 l 1,5,-1
 433 0 l 1,6,-1
 603 0 l 1,7,-1
 603 744 l 1,8,-1
 425 744 l 1,9,-1
 425 379 l 1,0,-1
-4 891 m 1,10,-1
 659 891 l 1,11,-1
 659 -155 l 1,12,-1
 -4 -155 l 1,13,-1
 -4 891 l 1,10,-1
EndSplineSet
Validated: 1
EndChar

StartChar: o
Encoding: 111 111 54
Width: 654
Flags: W
LayerCount: 2
Fore
SplineSet
612 470 m 1,0,1
 611 521 611 521 593 569 c 128,-1,2
 575 617 575 617 539 655 c 0,3,4
 498 698 498 698 445.5 721 c 128,-1,5
 393 744 393 744 334 744 c 2,6,-1
 333 744 l 2,7,8
 274 744 274 744 222 721 c 128,-1,9
 170 698 170 698 128 655 c 1,10,11
 93 617 93 617 74 567.5 c 128,-1,12
 55 518 55 518 55 470 c 2,13,-1
 55 296 l 1,14,15
 56 236 56 236 72.5 183 c 128,-1,16
 89 130 89 130 128 88 c 1,17,18
 170 45 170 45 222.5 22 c 128,-1,19
 275 -1 275 -1 333 -1 c 2,20,-1
 334 -1 l 2,21,22
 393 -1 393 -1 445.5 22 c 128,-1,23
 498 45 498 45 539 89 c 0,24,25
 579 131 579 131 595.5 186.5 c 128,-1,26
 612 242 612 242 612 296 c 2,27,-1
 612 470 l 1,0,1
-4 891 m 1,28,-1
 666 891 l 1,29,-1
 666 -155 l 1,30,-1
 -4 -155 l 1,31,-1
 -4 891 l 1,28,-1
EndSplineSet
Validated: 1
EndChar

StartChar: p
Encoding: 112 112 55
Width: 560
Flags: W
LayerCount: 2
Fore
SplineSet
286 744 m 1,0,-1
 60 744 l 1,1,-1
 60 0 l 1,2,-1
 231 0 l 1,3,-1
 231 262 l 1,4,-1
 286 262 l 1,5,-1
 287 262 l 2,6,7
 335 262 335 262 374 279.5 c 128,-1,8
 413 297 413 297 440.5 329 c 128,-1,9
 468 361 468 361 483 405 c 128,-1,10
 498 449 498 449 498 503 c 0,11,12
 498 558 498 558 483 602.5 c 128,-1,13
 468 647 468 647 440.5 678.5 c 128,-1,14
 413 710 413 710 374 727 c 128,-1,15
 335 744 335 744 287 744 c 2,16,-1
 286 744 l 1,0,-1
-4 891 m 1,17,-1
 564 891 l 1,18,-1
 564 -155 l 1,19,-1
 -4 -155 l 1,20,-1
 -4 891 l 1,17,-1
EndSplineSet
Validated: 1
EndChar

StartChar: q
Encoding: 113 113 56
Width: 712
Flags: W
LayerCount: 2
Fore
SplineSet
683 2 m 1,0,-1
 683 176 l 1,1,-1
 581 171 l 1,2,3
 598 200 598 200 603 225.5 c 128,-1,4
 608 251 608 251 609 284 c 1,5,-1
 609 306 l 1,6,-1
 609 356 l 1,7,-1
 609 448 l 1,8,-1
 609 470 l 1,9,10
 604 523 604 523 587.5 570 c 128,-1,11
 571 617 571 617 536 655 c 1,12,13
 494 698 494 698 441.5 721 c 128,-1,14
 389 744 389 744 331 744 c 2,15,-1
 330 744 l 2,16,17
 271 744 271 744 218.5 721 c 128,-1,18
 166 698 166 698 125 655 c 0,19,20
 89 617 89 617 72.5 570 c 128,-1,21
 56 523 56 523 52 470 c 1,22,-1
 52 296 l 2,23,24
 52 236 52 236 68.5 183 c 128,-1,25
 85 130 85 130 125 88 c 0,26,27
 145 67 145 67 165 50 c 128,-1,28
 185 33 185 33 208.5 22 c 128,-1,29
 232 11 232 11 261.5 5 c 128,-1,30
 291 -1 291 -1 330 -1 c 2,31,-1
 331 -1 l 2,32,33
 380 -1 380 -1 415.5 -0.5 c 128,-1,34
 451 0 451 0 471 0 c 2,35,-1
 593 0 l 1,36,-1
 683 2 l 1,0,-1
-4 891 m 1,37,-1
 716 891 l 1,38,-1
 716 -155 l 1,39,-1
 -4 -155 l 1,40,-1
 -4 891 l 1,37,-1
EndSplineSet
Validated: 1
EndChar

StartChar: r
Encoding: 114 114 57
Width: 582
Flags: W
LayerCount: 2
Fore
SplineSet
372 297 m 1,0,1
 385 297 385 297 408 310.5 c 128,-1,2
 431 324 431 324 453.5 350.5 c 128,-1,3
 476 377 476 377 492.5 416 c 128,-1,4
 509 455 509 455 509 505 c 0,5,6
 509 553 509 553 498 596.5 c 128,-1,7
 487 640 487 640 461.5 672.5 c 128,-1,8
 436 705 436 705 393.5 724.5 c 128,-1,9
 351 744 351 744 287 744 c 2,10,-1
 286 744 l 1,11,-1
 60 744 l 1,12,-1
 60 0 l 1,13,-1
 228 0 l 1,14,-1
 228 242 l 1,15,-1
 230 242 l 1,16,-1
 330 0 l 1,17,-1
 523 0 l 1,18,-1
 372 297 l 1,0,1
-4 891 m 1,19,-1
 591 891 l 1,20,-1
 591 -155 l 1,21,-1
 -4 -155 l 1,22,-1
 -4 891 l 1,19,-1
EndSplineSet
Validated: 1
EndChar

StartChar: s
Encoding: 115 115 58
Width: 603
Flags: W
LayerCount: 2
Fore
SplineSet
547 187 m 2,0,1
 547 244 547 244 527 285.5 c 128,-1,2
 507 327 507 327 474 360 c 128,-1,3
 441 393 441 393 398.5 419 c 128,-1,4
 356 445 356 445 310 471 c 1,5,6
 277 495 277 495 261.5 509.5 c 128,-1,7
 246 524 246 524 246 543 c 0,8,9
 246 568 246 568 262.5 580.5 c 128,-1,10
 279 593 279 593 299 593 c 0,11,12
 318 593 318 593 332.5 585 c 128,-1,13
 347 577 347 577 357.5 565.5 c 128,-1,14
 368 554 368 554 374 540.5 c 128,-1,15
 380 527 380 527 383 516 c 1,16,-1
 530 574 l 1,17,18
 525 604 525 604 509 634.5 c 128,-1,19
 493 665 493 665 464.5 689 c 128,-1,20
 436 713 436 713 394.5 728.5 c 128,-1,21
 353 744 353 744 298 744 c 1,22,23
 252 743 252 743 209 730 c 128,-1,24
 166 717 166 717 133 692 c 128,-1,25
 100 667 100 667 80 630 c 128,-1,26
 60 593 60 593 60 544 c 0,27,28
 60 491 60 491 78.5 456 c 128,-1,29
 97 421 97 421 129.5 393 c 128,-1,30
 162 365 162 365 205.5 339.5 c 128,-1,31
 249 314 249 314 300 280 c 0,32,33
 323 264 323 264 335.5 249.5 c 128,-1,34
 348 235 348 235 349 218 c 0,35,36
 350 190 350 190 333.5 177 c 128,-1,37
 317 164 317 164 300 162 c 0,38,39
 280 159 280 159 262.5 170.5 c 128,-1,40
 245 182 245 182 233 196.5 c 128,-1,41
 221 211 221 211 214.5 224 c 128,-1,42
 208 237 208 237 210 238 c 2,43,-1
 50 171 l 1,44,45
 60 131 60 131 82.5 99.5 c 128,-1,46
 105 68 105 68 137 46 c 128,-1,47
 169 24 169 24 208.5 12 c 128,-1,48
 248 0 248 0 293 0 c 0,49,50
 351 0 351 0 397 13.5 c 128,-1,51
 443 27 443 27 475.5 50.5 c 128,-1,52
 508 74 508 74 526.5 105.5 c 128,-1,53
 545 137 545 137 547 173 c 1,54,-1
 547 187 l 2,0,1
-4 891 m 1,55,-1
 606 891 l 1,56,-1
 606 -155 l 1,57,-1
 -4 -155 l 1,58,-1
 -4 891 l 1,55,-1
EndSplineSet
Validated: 33
EndChar

StartChar: t
Encoding: 116 116 59
Width: 603
Flags: W
LayerCount: 2
Fore
SplineSet
44 744 m 1,0,-1
 44 576 l 1,1,-1
 213 576 l 1,2,-1
 213 0 l 1,3,-1
 381 0 l 1,4,-1
 381 576 l 1,5,-1
 550 576 l 1,6,-1
 550 744 l 1,7,-1
 44 744 l 1,0,-1
-4 891 m 1,8,-1
 606 891 l 1,9,-1
 606 -155 l 1,10,-1
 -4 -155 l 1,11,-1
 -4 891 l 1,8,-1
EndSplineSet
Validated: 1
EndChar

StartChar: u
Encoding: 117 117 60
Width: 652
Flags: W
LayerCount: 2
Fore
SplineSet
425 745 m 1,0,-1
 425 310 l 2,1,2
 425 283 425 283 419.5 259 c 128,-1,3
 414 235 414 235 402.5 217 c 128,-1,4
 391 199 391 199 373 188.5 c 128,-1,5
 355 178 355 178 330 178 c 256,6,7
 305 178 305 178 287 188.5 c 128,-1,8
 269 199 269 199 257 217 c 128,-1,9
 245 235 245 235 239.5 259 c 128,-1,10
 234 283 234 283 234 310 c 2,11,-1
 234 745 l 1,12,-1
 61 745 l 1,13,-1
 61 297 l 2,14,15
 61 238 61 238 75.5 184 c 128,-1,16
 90 130 90 130 122 88.5 c 128,-1,17
 154 47 154 47 205 23 c 128,-1,18
 256 -1 256 -1 329 0 c 1,19,-1
 330 0 l 1,20,21
 396 -1 396 -1 446 20.5 c 128,-1,22
 496 42 496 42 529.5 81.5 c 128,-1,23
 563 121 563 121 580.5 176 c 128,-1,24
 598 231 598 231 598 297 c 2,25,-1
 598 745 l 1,26,-1
 425 745 l 1,0,-1
-4 891 m 1,27,-1
 661 891 l 1,28,-1
 661 -155 l 1,29,-1
 -4 -155 l 1,30,-1
 -4 891 l 1,27,-1
EndSplineSet
Validated: 33
EndChar

StartChar: v
Encoding: 118 118 61
Width: 693
Flags: W
LayerCount: 2
Fore
SplineSet
347 408 m 1,0,-1
 235 744 l 1,1,-1
 37 744 l 1,2,-1
 266 0 l 1,3,-1
 416 0 l 1,4,-1
 655 744 l 1,5,-1
 457 744 l 1,6,-1
 347 408 l 1,0,-1
-4 891 m 1,7,-1
 696 891 l 1,8,-1
 696 -155 l 1,9,-1
 -4 -155 l 1,10,-1
 -4 891 l 1,7,-1
EndSplineSet
Validated: 1
EndChar

StartChar: w
Encoding: 119 119 62
Width: 980
Flags: W
LayerCount: 2
Fore
SplineSet
636 410 m 1,0,-1
 558 744 l 1,1,-1
 417 744 l 1,2,-1
 339 410 l 1,3,-1
 260 744 l 1,4,-1
 62 744 l 1,5,-1
 253 0 l 1,6,-1
 414 0 l 1,7,-1
 492 314 l 1,8,-1
 560 0 l 1,9,-1
 711 0 l 1,10,-1
 922 744 l 1,11,-1
 714 744 l 1,12,-1
 636 410 l 1,0,-1
-4 891 m 1,13,-1
 986 891 l 1,14,-1
 986 -155 l 1,15,-1
 -4 -155 l 1,16,-1
 -4 891 l 1,13,-1
EndSplineSet
Validated: 1
EndChar

StartChar: x
Encoding: 120 120 63
Width: 656
Flags: W
LayerCount: 2
Fore
SplineSet
429 744 m 1,0,-1
 333 548 l 1,1,-1
 237 744 l 1,2,-1
 49 744 l 1,3,-1
 249 372 l 1,4,-1
 49 0 l 1,5,-1
 237 0 l 1,6,-1
 333 196 l 1,7,-1
 429 0 l 1,8,-1
 617 0 l 1,9,-1
 417 372 l 1,10,-1
 617 744 l 1,11,-1
 429 744 l 1,0,-1
-4 891 m 1,12,-1
 664 891 l 1,13,-1
 664 -155 l 1,14,-1
 -4 -155 l 1,15,-1
 -4 891 l 1,12,-1
EndSplineSet
Validated: 1
EndChar

StartChar: y
Encoding: 121 121 64
Width: 621
Flags: W
LayerCount: 2
Fore
SplineSet
389 744 m 1,0,-1
 303 568 l 1,1,-1
 216 744 l 1,2,-1
 28 744 l 1,3,-1
 219 372 l 1,4,-1
 219 0 l 1,5,-1
 377 0 l 1,6,-1
 377 372 l 1,7,-1
 577 744 l 1,8,-1
 389 744 l 1,0,-1
-4 891 m 1,9,-1
 625 891 l 1,10,-1
 625 -155 l 1,11,-1
 -4 -155 l 1,12,-1
 -4 891 l 1,9,-1
EndSplineSet
Validated: 1
EndChar

StartChar: z
Encoding: 122 122 65
Width: 630
Flags: W
LayerCount: 2
Fore
SplineSet
76 744 m 1,0,-1
 76 576 l 1,1,-1
 345 576 l 1,2,-1
 76 168 l 1,3,-1
 76 0 l 1,4,-1
 551 0 l 1,5,-1
 551 168 l 1,6,-1
 291 168 l 1,7,-1
 551 576 l 1,8,-1
 551 744 l 1,9,-1
 76 744 l 1,0,-1
-4 891 m 1,10,-1
 636 891 l 1,11,-1
 636 -155 l 1,12,-1
 -4 -155 l 1,13,-1
 -4 891 l 1,10,-1
EndSplineSet
Validated: 1
EndChar

StartChar: grave
Encoding: 96 96 66
Width: 205
Flags: W
LayerCount: 2
Fore
SplineSet
50 744 m 1,0,-1
 60 607 l 1,1,-1
 141 607 l 1,2,-1
 151 744 l 1,3,-1
 50 744 l 1,0,-1
-9 891 m 1,4,-1
 211 891 l 1,5,-1
 211 -155 l 1,6,-1
 -9 -155 l 1,7,-1
 -9 891 l 1,4,-1
EndSplineSet
Validated: 1
EndChar

StartChar: quoteleft
Encoding: 8216 8216 67
Width: 205
Flags: W
LayerCount: 2
Fore
SplineSet
50 744 m 1,0,-1
 60 607 l 1,1,-1
 141 607 l 1,2,-1
 151 744 l 1,3,-1
 50 744 l 1,0,-1
-9 891 m 1,4,-1
 211 891 l 1,5,-1
 211 -155 l 1,6,-1
 -9 -155 l 1,7,-1
 -9 891 l 1,4,-1
EndSplineSet
Validated: 1
EndChar

StartChar: quotedblleft
Encoding: 8220 8220 68
Width: 286
Flags: W
LayerCount: 2
Fore
SplineSet
20 744 m 1,0,-1
 30 607 l 1,1,-1
 111 607 l 1,2,-1
 121 744 l 1,3,-1
 20 744 l 1,0,-1
140 744 m 1,4,-1
 150 607 l 1,5,-1
 231 607 l 1,6,-1
 241 744 l 1,7,-1
 140 744 l 1,4,-1
-9 891 m 1,8,-1
 293 891 l 1,9,-1
 293 -155 l 1,10,-1
 -9 -155 l 1,11,-1
 -9 891 l 1,8,-1
EndSplineSet
Validated: 1
EndChar

StartChar: A
Encoding: 65 65 69
Width: 782
Flags: W
LayerCount: 2
Fore
SplineSet
520 0 m 1,0,-1
 711 0 l 1,1,-1
 493 744 l 1,2,-1
 269 744 l 1,3,-1
 51 0 l 1,4,-1
 242 0 l 1,5,-1
 308 196 l 1,6,-1
 453 196 l 1,7,-1
 520 0 l 1,0,-1
-2 891 m 1,8,-1
 792 891 l 1,9,-1
 792 -155 l 1,10,-1
 -2 -155 l 1,11,-1
 -2 891 l 1,8,-1
EndSplineSet
Validated: 1
EndChar

StartChar: B
Encoding: 66 66 70
Width: 540
Flags: W
LayerCount: 2
Fore
SplineSet
336 391 m 1,0,1
 354 391 354 391 374 404 c 128,-1,2
 394 417 394 417 410.5 440 c 128,-1,3
 427 463 427 463 437.5 495 c 128,-1,4
 448 527 448 527 448 566 c 0,5,6
 448 603 448 603 435 635 c 128,-1,7
 422 667 422 667 396 691 c 128,-1,8
 370 715 370 715 329 729 c 128,-1,9
 288 743 288 743 233 743 c 2,10,-1
 228 743 l 1,11,-1
 238 743 l 1,12,-1
 60 743 l 1,13,-1
 60 -1 l 1,14,-1
 298 -1 l 1,15,-1
 303 -1 l 2,16,17
 352 -1 352 -1 389 15.5 c 128,-1,18
 426 32 426 32 450.5 60.5 c 128,-1,19
 475 89 475 89 487.5 126 c 128,-1,20
 500 163 500 163 500 204 c 0,21,22
 500 232 500 232 491 265 c 128,-1,23
 482 298 482 298 462.5 326 c 128,-1,24
 443 354 443 354 412 372.5 c 128,-1,25
 381 391 381 391 336 391 c 1,0,1
-3 891 m 1,26,-1
 550 891 l 1,27,-1
 550 -155 l 1,28,-1
 -3 -155 l 1,29,-1
 -3 891 l 1,26,-1
EndSplineSet
Validated: 5
EndChar

StartChar: C
Encoding: 67 67 71
Width: 656
Flags: W
LayerCount: 2
Fore
SplineSet
328 165 m 0,0,1
 277 169 277 169 246 206.5 c 128,-1,2
 215 244 215 244 215 299 c 2,3,-1
 215 444 l 2,4,5
 215 499 215 499 245.5 535.5 c 128,-1,6
 276 572 276 572 327 576 c 0,7,8
 348 577 348 577 367 568 c 128,-1,9
 386 559 386 559 401 544 c 128,-1,10
 416 529 416 529 426.5 510 c 128,-1,11
 437 491 437 491 443 473 c 1,12,-1
 588 554 l 1,13,14
 577 588 577 588 557.5 622 c 128,-1,15
 538 656 538 656 506.5 683 c 128,-1,16
 475 710 475 710 431 727 c 128,-1,17
 387 744 387 744 326 744 c 2,18,-1
 325 744 l 2,19,20
 256 744 256 744 204 718.5 c 128,-1,21
 152 693 152 693 117.5 651 c 128,-1,22
 83 609 83 609 65.5 555.5 c 128,-1,23
 48 502 48 502 47 447 c 1,24,-1
 47 293 l 1,25,26
 50 235 50 235 65 181.5 c 128,-1,27
 80 128 80 128 112.5 87.5 c 128,-1,28
 145 47 145 47 196.5 23 c 128,-1,29
 248 -1 248 -1 324 -1 c 2,30,-1
 325 -1 l 2,31,32
 393 -1 393 -1 439.5 18.5 c 128,-1,33
 486 38 486 38 516 65 c 128,-1,34
 546 92 546 92 562.5 120 c 128,-1,35
 579 148 579 148 588 166 c 1,36,-1
 443 247 l 1,37,38
 428 212 428 212 399.5 187 c 128,-1,39
 371 162 371 162 328 165 c 0,0,1
-5 891 m 1,40,-1
 664 891 l 1,41,-1
 664 -155 l 1,42,-1
 -5 -155 l 1,43,-1
 -5 891 l 1,40,-1
EndSplineSet
Validated: 33
EndChar

StartChar: D
Encoding: 68 68 72
Width: 649
Flags: W
LayerCount: 2
Fore
SplineSet
571 372 m 0,0,1
 571 451 571 451 549 519.5 c 128,-1,2
 527 588 527 588 483 637.5 c 128,-1,3
 439 687 439 687 373 715.5 c 128,-1,4
 307 744 307 744 220 744 c 2,5,-1
 70 744 l 1,6,-1
 70 0 l 1,7,-1
 220 0 l 1,8,-1
 242 0 l 2,9,10
 333 0 333 0 396 30 c 128,-1,11
 459 60 459 60 498 111 c 128,-1,12
 537 162 537 162 554 229.5 c 128,-1,13
 571 297 571 297 571 372 c 0,0,1
-4 891 m 1,14,-1
 656 891 l 1,15,-1
 656 -155 l 1,16,-1
 -4 -155 l 1,17,-1
 -4 891 l 1,14,-1
EndSplineSet
Validated: 1
EndChar

StartChar: E
Encoding: 69 69 73
Width: 571
Flags: W
LayerCount: 2
Fore
SplineSet
516 744 m 1,0,-1
 60 744 l 1,1,-1
 60 0 l 1,2,-1
 516 0 l 1,3,-1
 516 168 l 1,4,-1
 228 168 l 1,5,-1
 228 288 l 1,6,-1
 440 288 l 1,7,-1
 440 456 l 1,8,-1
 228 456 l 1,9,-1
 228 576 l 1,10,-1
 516 576 l 1,11,-1
 516 744 l 1,0,-1
-4 891 m 1,12,-1
 581 891 l 1,13,-1
 581 -155 l 1,14,-1
 -4 -155 l 1,15,-1
 -4 891 l 1,12,-1
EndSplineSet
Validated: 1
EndChar

StartChar: F
Encoding: 70 70 74
Width: 542
Flags: W
LayerCount: 2
Fore
SplineSet
502 744 m 1,0,-1
 46 744 l 1,1,-1
 46 0 l 1,2,-1
 214 0 l 1,3,-1
 214 288 l 1,4,-1
 426 288 l 1,5,-1
 426 456 l 1,6,-1
 214 456 l 1,7,-1
 214 576 l 1,8,-1
 502 576 l 1,9,-1
 502 744 l 1,0,-1
-4 891 m 1,10,-1
 546 891 l 1,11,-1
 546 -155 l 1,12,-1
 -4 -155 l 1,13,-1
 -4 891 l 1,10,-1
EndSplineSet
Validated: 1
EndChar

StartChar: G
Encoding: 71 71 75
Width: 669
Flags: W
LayerCount: 2
Fore
SplineSet
340 398 m 1,0,-1
 340 254 l 1,1,-1
 419 254 l 1,2,-1
 419 217 l 1,3,4
 408 197 408 197 386.5 184 c 128,-1,5
 365 171 365 171 330 172 c 0,6,7
 305 172 305 172 284 182 c 128,-1,8
 263 192 263 192 247.5 208.5 c 128,-1,9
 232 225 232 225 223 248.5 c 128,-1,10
 214 272 214 272 214 299 c 2,11,-1
 214 444 l 2,12,13
 214 499 214 499 243.5 532.5 c 128,-1,14
 273 566 273 566 323 566 c 0,15,16
 349 566 349 566 366 557.5 c 128,-1,17
 383 549 383 549 394.5 537 c 128,-1,18
 406 525 406 525 412.5 511 c 128,-1,19
 419 497 419 497 424 486 c 1,20,-1
 562 577 l 1,21,22
 552 592 552 592 539 619 c 128,-1,23
 526 646 526 646 500.5 673 c 128,-1,24
 475 700 475 700 432.5 720.5 c 128,-1,25
 390 741 390 741 322 744 c 1,26,-1
 321 744 l 2,27,28
 253 744 253 744 201 720 c 128,-1,29
 149 696 149 696 114 655.5 c 128,-1,30
 79 615 79 615 61 561 c 128,-1,31
 43 507 43 507 43 447 c 2,32,-1
 43 293 l 1,33,34
 45 229 45 229 64 175 c 128,-1,35
 83 121 83 121 117.5 82 c 128,-1,36
 152 43 152 43 203 21 c 128,-1,37
 254 -1 254 -1 321 -1 c 2,38,-1
 322 -1 l 2,39,40
 365 -1 365 -1 404 10.5 c 128,-1,41
 443 22 443 22 475.5 41 c 128,-1,42
 508 60 508 60 534.5 85.5 c 128,-1,43
 561 111 561 111 580 138 c 1,44,-1
 580 398 l 1,45,-1
 340 398 l 1,0,-1
-4 891 m 1,46,-1
 675 891 l 1,47,-1
 675 -155 l 1,48,-1
 -4 -155 l 1,49,-1
 -4 891 l 1,46,-1
EndSplineSet
Validated: 33
EndChar

StartChar: H
Encoding: 72 72 76
Width: 647
Flags: W
LayerCount: 2
Fore
SplineSet
407 456 m 1,0,-1
 208 456 l 1,1,-1
 208 744 l 1,2,-1
 40 744 l 1,3,-1
 40 0 l 1,4,-1
 208 0 l 1,5,-1
 208 288 l 1,6,-1
 407 288 l 1,7,-1
 407 0 l 1,8,-1
 575 0 l 1,9,-1
 575 744 l 1,10,-1
 407 744 l 1,11,-1
 407 456 l 1,0,-1
-4 891 m 1,12,-1
 656 891 l 1,13,-1
 656 -155 l 1,14,-1
 -4 -155 l 1,15,-1
 -4 891 l 1,12,-1
EndSplineSet
Validated: 1
EndChar

StartChar: I
Encoding: 73 73 77
Width: 290
Flags: W
LayerCount: 2
Fore
SplineSet
228 744 m 1,0,-1
 60 744 l 1,1,-1
 60 0 l 1,2,-1
 228 0 l 1,3,-1
 228 744 l 1,0,-1
-4 891 m 1,4,-1
 296 891 l 1,5,-1
 296 -155 l 1,6,-1
 -4 -155 l 1,7,-1
 -4 891 l 1,4,-1
EndSplineSet
Validated: 1
EndChar

StartChar: J
Encoding: 74 74 78
Width: 601
Flags: W
LayerCount: 2
Fore
SplineSet
360 744 m 1,0,-1
 360 241 l 2,1,2
 360 215 360 215 343 196.5 c 128,-1,3
 326 178 326 178 300 178 c 256,4,5
 274 178 274 178 257.5 196.5 c 128,-1,6
 241 215 241 215 241 241 c 2,7,-1
 241 305 l 1,8,-1
 70 305 l 1,9,-1
 70 231 l 2,10,11
 70 173 70 173 88 129.5 c 128,-1,12
 106 86 106 86 137.5 57.5 c 128,-1,13
 169 29 169 29 210.5 14.5 c 128,-1,14
 252 0 252 0 300 0 c 0,15,16
 347 0 347 0 389 14 c 128,-1,17
 431 28 431 28 462.5 56.5 c 128,-1,18
 494 85 494 85 512.5 127.5 c 128,-1,19
 531 170 531 170 531 227 c 2,20,-1
 531 744 l 1,21,-1
 360 744 l 1,0,-1
-4 891 m 1,22,-1
 610 891 l 1,23,-1
 610 -155 l 1,24,-1
 -4 -155 l 1,25,-1
 -4 891 l 1,22,-1
EndSplineSet
Validated: 1
EndChar

StartChar: K
Encoding: 75 75 79
Width: 623
Flags: W
LayerCount: 2
Fore
SplineSet
349 744 m 1,0,-1
 228 571 l 1,1,-1
 228 744 l 1,2,-1
 60 744 l 1,3,-1
 60 0 l 1,4,-1
 228 0 l 1,5,-1
 228 161 l 1,6,-1
 348 0 l 1,7,-1
 556 0 l 1,8,-1
 280 371 l 1,9,-1
 557 744 l 1,10,-1
 349 744 l 1,0,-1
-4 891 m 1,11,-1
 631 891 l 1,12,-1
 631 -155 l 1,13,-1
 -4 -155 l 1,14,-1
 -4 891 l 1,11,-1
EndSplineSet
Validated: 1
EndChar

StartChar: L
Encoding: 76 76 80
Width: 492
Flags: W
LayerCount: 2
Fore
SplineSet
238 744 m 1,0,-1
 70 744 l 1,1,-1
 70 0 l 1,2,-1
 437 0 l 1,3,-1
 437 168 l 1,4,-1
 238 168 l 1,5,-1
 238 744 l 1,0,-1
-4 891 m 1,6,-1
 501 891 l 1,7,-1
 501 -155 l 1,8,-1
 -4 -155 l 1,9,-1
 -4 891 l 1,6,-1
EndSplineSet
Validated: 1
EndChar

StartChar: M
Encoding: 77 77 81
Width: 798
Flags: W
LayerCount: 2
Fore
SplineSet
560 744 m 1,0,-1
 560 744 l 1,1,-1
 405 312 l 1,2,-1
 251 744 l 1,3,-1
 80 744 l 1,4,-1
 80 0 l 1,5,-1
 258 0 l 1,6,-1
 258 268 l 1,7,-1
 351 0 l 1,8,-1
 459 0 l 1,9,-1
 550 260 l 1,10,-1
 550 0 l 1,11,-1
 728 0 l 1,12,-1
 728 744 l 1,13,-1
 728 744 l 1,14,-1
 560 744 l 1,0,-1
-4 891 m 1,15,-1
 804 891 l 1,16,-1
 804 -155 l 1,17,-1
 -4 -155 l 1,18,-1
 -4 891 l 1,15,-1
EndSplineSet
Validated: 5
EndChar

StartChar: N
Encoding: 78 78 82
Width: 652
Flags: W
LayerCount: 2
Fore
SplineSet
425 379 m 1,0,-1
 226 744 l 1,1,-1
 55 744 l 1,2,-1
 55 0 l 1,3,-1
 233 0 l 1,4,-1
 233 366 l 1,5,-1
 433 0 l 1,6,-1
 603 0 l 1,7,-1
 603 744 l 1,8,-1
 425 744 l 1,9,-1
 425 379 l 1,0,-1
-4 891 m 1,10,-1
 660 891 l 1,11,-1
 660 -155 l 1,12,-1
 -4 -155 l 1,13,-1
 -4 891 l 1,10,-1
EndSplineSet
Validated: 1
EndChar

StartChar: O
Encoding: 79 79 83
Width: 656
Flags: W
LayerCount: 2
Fore
SplineSet
612 470 m 1,0,1
 611 521 611 521 593 569 c 128,-1,2
 575 617 575 617 539 655 c 0,3,4
 498 698 498 698 445.5 721 c 128,-1,5
 393 744 393 744 334 744 c 2,6,-1
 333 744 l 2,7,8
 274 744 274 744 222 721 c 128,-1,9
 170 698 170 698 128 655 c 1,10,11
 93 617 93 617 74 567.5 c 128,-1,12
 55 518 55 518 55 470 c 2,13,-1
 55 296 l 1,14,15
 56 236 56 236 72.5 183 c 128,-1,16
 89 130 89 130 128 88 c 1,17,18
 170 45 170 45 222.5 22 c 128,-1,19
 275 -1 275 -1 333 -1 c 2,20,-1
 334 -1 l 2,21,22
 393 -1 393 -1 445.5 22 c 128,-1,23
 498 45 498 45 539 89 c 0,24,25
 579 131 579 131 595.5 186.5 c 128,-1,26
 612 242 612 242 612 296 c 2,27,-1
 612 470 l 1,0,1
-4 891 m 1,28,-1
 666 891 l 1,29,-1
 666 -155 l 1,30,-1
 -4 -155 l 1,31,-1
 -4 891 l 1,28,-1
EndSplineSet
Validated: 1
EndChar

StartChar: P
Encoding: 80 80 84
Width: 560
Flags: W
LayerCount: 2
Fore
SplineSet
286 744 m 1,0,-1
 60 744 l 1,1,-1
 60 0 l 1,2,-1
 231 0 l 1,3,-1
 231 262 l 1,4,-1
 286 262 l 1,5,-1
 287 262 l 2,6,7
 335 262 335 262 374 279.5 c 128,-1,8
 413 297 413 297 440.5 329 c 128,-1,9
 468 361 468 361 483 405 c 128,-1,10
 498 449 498 449 498 503 c 0,11,12
 498 558 498 558 483 602.5 c 128,-1,13
 468 647 468 647 440.5 678.5 c 128,-1,14
 413 710 413 710 374 727 c 128,-1,15
 335 744 335 744 287 744 c 2,16,-1
 286 744 l 1,0,-1
-4 891 m 1,17,-1
 564 891 l 1,18,-1
 564 -155 l 1,19,-1
 -4 -155 l 1,20,-1
 -4 891 l 1,17,-1
EndSplineSet
Validated: 1
EndChar

StartChar: Q
Encoding: 81 81 85
Width: 712
Flags: W
LayerCount: 2
Fore
SplineSet
683 2 m 1,0,-1
 683 176 l 1,1,-1
 581 171 l 1,2,3
 598 200 598 200 603 225.5 c 128,-1,4
 608 251 608 251 609 284 c 1,5,-1
 609 306 l 1,6,-1
 609 356 l 1,7,-1
 609 448 l 1,8,-1
 609 470 l 1,9,10
 604 523 604 523 587.5 570 c 128,-1,11
 571 617 571 617 536 655 c 1,12,13
 494 698 494 698 441.5 721 c 128,-1,14
 389 744 389 744 331 744 c 2,15,-1
 330 744 l 2,16,17
 271 744 271 744 218.5 721 c 128,-1,18
 166 698 166 698 125 655 c 0,19,20
 89 617 89 617 72.5 570 c 128,-1,21
 56 523 56 523 52 470 c 1,22,-1
 52 296 l 2,23,24
 52 236 52 236 68.5 183 c 128,-1,25
 85 130 85 130 125 88 c 0,26,27
 145 67 145 67 165 50 c 128,-1,28
 185 33 185 33 208.5 22 c 128,-1,29
 232 11 232 11 261.5 5 c 128,-1,30
 291 -1 291 -1 330 -1 c 2,31,-1
 331 -1 l 2,32,33
 380 -1 380 -1 415.5 -0.5 c 128,-1,34
 451 0 451 0 471 0 c 2,35,-1
 593 0 l 1,36,-1
 683 2 l 1,0,-1
-4 891 m 1,37,-1
 716 891 l 1,38,-1
 716 -155 l 1,39,-1
 -4 -155 l 1,40,-1
 -4 891 l 1,37,-1
EndSplineSet
Validated: 1
EndChar

StartChar: R
Encoding: 82 82 86
Width: 582
Flags: W
LayerCount: 2
Fore
SplineSet
372 297 m 1,0,1
 385 297 385 297 408 310.5 c 128,-1,2
 431 324 431 324 453.5 350.5 c 128,-1,3
 476 377 476 377 492.5 416 c 128,-1,4
 509 455 509 455 509 505 c 0,5,6
 509 553 509 553 498 596.5 c 128,-1,7
 487 640 487 640 461.5 672.5 c 128,-1,8
 436 705 436 705 393.5 724.5 c 128,-1,9
 351 744 351 744 287 744 c 2,10,-1
 286 744 l 1,11,-1
 60 744 l 1,12,-1
 60 0 l 1,13,-1
 228 0 l 1,14,-1
 228 242 l 1,15,-1
 230 242 l 1,16,-1
 330 0 l 1,17,-1
 523 0 l 1,18,-1
 372 297 l 1,0,1
-4 891 m 1,19,-1
 591 891 l 1,20,-1
 591 -155 l 1,21,-1
 -4 -155 l 1,22,-1
 -4 891 l 1,19,-1
EndSplineSet
Validated: 1
EndChar

StartChar: S
Encoding: 83 83 87
Width: 603
Flags: W
LayerCount: 2
Fore
SplineSet
547 187 m 2,0,1
 547 244 547 244 527 285.5 c 128,-1,2
 507 327 507 327 474 360 c 128,-1,3
 441 393 441 393 398.5 419 c 128,-1,4
 356 445 356 445 310 471 c 1,5,6
 277 495 277 495 261.5 509.5 c 128,-1,7
 246 524 246 524 246 543 c 0,8,9
 246 568 246 568 262.5 580.5 c 128,-1,10
 279 593 279 593 299 593 c 0,11,12
 318 593 318 593 332.5 585 c 128,-1,13
 347 577 347 577 357.5 565.5 c 128,-1,14
 368 554 368 554 374 540.5 c 128,-1,15
 380 527 380 527 383 516 c 1,16,-1
 530 574 l 1,17,18
 525 604 525 604 509 634.5 c 128,-1,19
 493 665 493 665 464.5 689 c 128,-1,20
 436 713 436 713 394.5 728.5 c 128,-1,21
 353 744 353 744 298 744 c 1,22,23
 252 743 252 743 209 730 c 128,-1,24
 166 717 166 717 133 692 c 128,-1,25
 100 667 100 667 80 630 c 128,-1,26
 60 593 60 593 60 544 c 0,27,28
 60 491 60 491 78.5 456 c 128,-1,29
 97 421 97 421 129.5 393 c 128,-1,30
 162 365 162 365 205.5 339.5 c 128,-1,31
 249 314 249 314 300 280 c 0,32,33
 323 264 323 264 335.5 249.5 c 128,-1,34
 348 235 348 235 349 218 c 0,35,36
 350 190 350 190 333.5 177 c 128,-1,37
 317 164 317 164 300 162 c 0,38,39
 280 159 280 159 262.5 170.5 c 128,-1,40
 245 182 245 182 233 196.5 c 128,-1,41
 221 211 221 211 214.5 224 c 128,-1,42
 208 237 208 237 210 238 c 2,43,-1
 50 171 l 1,44,45
 60 131 60 131 82.5 99.5 c 128,-1,46
 105 68 105 68 137 46 c 128,-1,47
 169 24 169 24 208.5 12 c 128,-1,48
 248 0 248 0 293 0 c 0,49,50
 351 0 351 0 397 13.5 c 128,-1,51
 443 27 443 27 475.5 50.5 c 128,-1,52
 508 74 508 74 526.5 105.5 c 128,-1,53
 545 137 545 137 547 173 c 1,54,-1
 547 187 l 2,0,1
-4 891 m 1,55,-1
 606 891 l 1,56,-1
 606 -155 l 1,57,-1
 -4 -155 l 1,58,-1
 -4 891 l 1,55,-1
EndSplineSet
Validated: 33
EndChar

StartChar: T
Encoding: 84 84 88
Width: 603
Flags: W
LayerCount: 2
Fore
SplineSet
44 744 m 1,0,-1
 44 576 l 1,1,-1
 213 576 l 1,2,-1
 213 0 l 1,3,-1
 381 0 l 1,4,-1
 381 576 l 1,5,-1
 550 576 l 1,6,-1
 550 744 l 1,7,-1
 44 744 l 1,0,-1
-4 891 m 1,8,-1
 606 891 l 1,9,-1
 606 -155 l 1,10,-1
 -4 -155 l 1,11,-1
 -4 891 l 1,8,-1
EndSplineSet
Validated: 1
EndChar

StartChar: U
Encoding: 85 85 89
Width: 652
Flags: W
LayerCount: 2
Fore
SplineSet
425 745 m 1,0,-1
 425 310 l 2,1,2
 425 283 425 283 419.5 259 c 128,-1,3
 414 235 414 235 402.5 217 c 128,-1,4
 391 199 391 199 373 188.5 c 128,-1,5
 355 178 355 178 330 178 c 256,6,7
 305 178 305 178 287 188.5 c 128,-1,8
 269 199 269 199 257 217 c 128,-1,9
 245 235 245 235 239.5 259 c 128,-1,10
 234 283 234 283 234 310 c 2,11,-1
 234 745 l 1,12,-1
 61 745 l 1,13,-1
 61 297 l 2,14,15
 61 238 61 238 75.5 184 c 128,-1,16
 90 130 90 130 122 88.5 c 128,-1,17
 154 47 154 47 205 23 c 128,-1,18
 256 -1 256 -1 329 0 c 1,19,-1
 330 0 l 1,20,21
 396 -1 396 -1 446 20.5 c 128,-1,22
 496 42 496 42 529.5 81.5 c 128,-1,23
 563 121 563 121 580.5 176 c 128,-1,24
 598 231 598 231 598 297 c 2,25,-1
 598 745 l 1,26,-1
 425 745 l 1,0,-1
-4 891 m 1,27,-1
 661 891 l 1,28,-1
 661 -155 l 1,29,-1
 -4 -155 l 1,30,-1
 -4 891 l 1,27,-1
EndSplineSet
Validated: 33
EndChar

StartChar: V
Encoding: 86 86 90
Width: 693
Flags: W
LayerCount: 2
Fore
SplineSet
347 408 m 1,0,-1
 235 744 l 1,1,-1
 37 744 l 1,2,-1
 266 0 l 1,3,-1
 416 0 l 1,4,-1
 655 744 l 1,5,-1
 457 744 l 1,6,-1
 347 408 l 1,0,-1
-4 891 m 1,7,-1
 696 891 l 1,8,-1
 696 -155 l 1,9,-1
 -4 -155 l 1,10,-1
 -4 891 l 1,7,-1
EndSplineSet
Validated: 1
EndChar

StartChar: W
Encoding: 87 87 91
Width: 980
Flags: W
LayerCount: 2
Fore
SplineSet
636 410 m 1,0,-1
 558 744 l 1,1,-1
 417 744 l 1,2,-1
 339 410 l 1,3,-1
 260 744 l 1,4,-1
 62 744 l 1,5,-1
 253 0 l 1,6,-1
 414 0 l 1,7,-1
 492 314 l 1,8,-1
 560 0 l 1,9,-1
 711 0 l 1,10,-1
 922 744 l 1,11,-1
 714 744 l 1,12,-1
 636 410 l 1,0,-1
-4 891 m 1,13,-1
 986 891 l 1,14,-1
 986 -155 l 1,15,-1
 -4 -155 l 1,16,-1
 -4 891 l 1,13,-1
EndSplineSet
Validated: 1
EndChar

StartChar: X
Encoding: 88 88 92
Width: 656
Flags: W
LayerCount: 2
Fore
SplineSet
429 744 m 1,0,-1
 333 548 l 1,1,-1
 237 744 l 1,2,-1
 49 744 l 1,3,-1
 249 372 l 1,4,-1
 49 0 l 1,5,-1
 237 0 l 1,6,-1
 333 196 l 1,7,-1
 429 0 l 1,8,-1
 617 0 l 1,9,-1
 417 372 l 1,10,-1
 617 744 l 1,11,-1
 429 744 l 1,0,-1
-4 891 m 1,12,-1
 664 891 l 1,13,-1
 664 -155 l 1,14,-1
 -4 -155 l 1,15,-1
 -4 891 l 1,12,-1
EndSplineSet
Validated: 1
EndChar

StartChar: Y
Encoding: 89 89 93
Width: 621
Flags: W
LayerCount: 2
Fore
SplineSet
389 744 m 1,0,-1
 303 568 l 1,1,-1
 216 744 l 1,2,-1
 28 744 l 1,3,-1
 219 372 l 1,4,-1
 219 0 l 1,5,-1
 377 0 l 1,6,-1
 377 372 l 1,7,-1
 577 744 l 1,8,-1
 389 744 l 1,0,-1
-4 891 m 1,9,-1
 625 891 l 1,10,-1
 625 -155 l 1,11,-1
 -4 -155 l 1,12,-1
 -4 891 l 1,9,-1
EndSplineSet
Validated: 1
EndChar

StartChar: Z
Encoding: 90 90 94
Width: 630
Flags: W
LayerCount: 2
Fore
SplineSet
76 744 m 1,0,-1
 76 576 l 1,1,-1
 345 576 l 1,2,-1
 76 168 l 1,3,-1
 76 0 l 1,4,-1
 551 0 l 1,5,-1
 551 168 l 1,6,-1
 291 168 l 1,7,-1
 551 576 l 1,8,-1
 551 744 l 1,9,-1
 76 744 l 1,0,-1
-4 891 m 1,10,-1
 636 891 l 1,11,-1
 636 -155 l 1,12,-1
 -4 -155 l 1,13,-1
 -4 891 l 1,10,-1
EndSplineSet
Validated: 1
EndChar

StartChar: quoteright
Encoding: 8217 8217 95
Width: 205
Flags: W
LayerCount: 2
Fore
SplineSet
50 744 m 1,0,-1
 60 607 l 1,1,-1
 141 607 l 1,2,-1
 151 744 l 1,3,-1
 50 744 l 1,0,-1
-9 891 m 1,4,-1
 211 891 l 1,5,-1
 211 -155 l 1,6,-1
 -9 -155 l 1,7,-1
 -9 891 l 1,4,-1
EndSplineSet
Validated: 1
EndChar

StartChar: quotedblright
Encoding: 8221 8221 96
Width: 286
Flags: W
LayerCount: 2
Fore
SplineSet
20 744 m 1,0,-1
 30 607 l 1,1,-1
 111 607 l 1,2,-1
 121 744 l 1,3,-1
 20 744 l 1,0,-1
140 744 m 1,4,-1
 150 607 l 1,5,-1
 231 607 l 1,6,-1
 241 744 l 1,7,-1
 140 744 l 1,4,-1
-9 891 m 1,8,-1
 293 891 l 1,9,-1
 293 -155 l 1,10,-1
 -9 -155 l 1,11,-1
 -9 891 l 1,8,-1
EndSplineSet
Validated: 1
EndChar

StartChar: quotedbl
Encoding: 34 34 97
Width: 286
Flags: W
LayerCount: 2
Fore
SplineSet
20 744 m 1,0,-1
 30 607 l 1,1,-1
 111 607 l 1,2,-1
 121 744 l 1,3,-1
 20 744 l 1,0,-1
140 744 m 1,4,-1
 150 607 l 1,5,-1
 231 607 l 1,6,-1
 241 744 l 1,7,-1
 140 744 l 1,4,-1
-9 891 m 1,8,-1
 293 891 l 1,9,-1
 293 -155 l 1,10,-1
 -9 -155 l 1,11,-1
 -9 891 l 1,8,-1
EndSplineSet
Validated: 1
EndChar

StartChar: quotesingle
Encoding: 39 39 98
Width: 205
Flags: W
LayerCount: 2
Fore
SplineSet
50 744 m 1,0,-1
 60 607 l 1,1,-1
 141 607 l 1,2,-1
 151 744 l 1,3,-1
 50 744 l 1,0,-1
-9 891 m 1,4,-1
 211 891 l 1,5,-1
 211 -155 l 1,6,-1
 -9 -155 l 1,7,-1
 -9 891 l 1,4,-1
EndSplineSet
Validated: 1
EndChar

StartChar: colon
Encoding: 58 58 99
Width: 331
Flags: W
LayerCount: 2
Fore
SplineSet
100 625 m 1,0,-1
 100 487 l 1,1,-1
 236 487 l 1,2,-1
 236 625 l 1,3,-1
 100 625 l 1,0,-1
100 299 m 1,4,-1
 100 161 l 1,5,-1
 236 161 l 1,6,-1
 236 299 l 1,7,-1
 100 299 l 1,4,-1
-9 891 m 1,8,-1
 341 891 l 1,9,-1
 341 -155 l 1,10,-1
 -9 -155 l 1,11,-1
 -9 891 l 1,8,-1
EndSplineSet
Validated: 1
EndChar

StartChar: period
Encoding: 46 46 100
Width: 315
Flags: W
LayerCount: 2
Fore
SplineSet
220 0 m 1,0,-1
 220 138 l 1,1,-1
 83 138 l 1,2,-1
 83 0 l 1,3,-1
 220 0 l 1,0,-1
-9 891 m 1,4,-1
 323 891 l 1,5,-1
 323 -155 l 1,6,-1
 -9 -155 l 1,7,-1
 -9 891 l 1,4,-1
EndSplineSet
Validated: 1
EndChar

StartChar: semicolon
Encoding: 59 59 101
Width: 333
Flags: W
LayerCount: 2
Fore
SplineSet
87 625 m 1,0,-1
 87 487 l 1,1,-1
 223 487 l 1,2,-1
 223 625 l 1,3,-1
 87 625 l 1,0,-1
88 300 m 1,4,-1
 88 162 l 1,5,-1
 132 162 l 1,6,-1
 109 69 l 1,7,-1
 172 69 l 1,8,-1
 225 162 l 1,9,-1
 225 300 l 1,10,-1
 88 300 l 1,4,-1
-9 891 m 1,11,-1
 341 891 l 1,12,-1
 341 -155 l 1,13,-1
 -9 -155 l 1,14,-1
 -9 891 l 1,11,-1
EndSplineSet
Validated: 1
EndChar

StartChar: Ograve
Encoding: 210 210 102
Width: 656
Flags: W
LayerCount: 2
Fore
SplineSet
241.303 826.497 m 5,0,-1
 402.411 769.177 l 5,1,-1
 418.5 814.4 l 5,2,-1
 257.393 871.72 l 5,3,-1
 241.303 826.497 l 5,0,-1
612 470 m 1,4,5
 611 521 611 521 593 569 c 128,-1,6
 575 617 575 617 539 655 c 0,7,8
 498 698 498 698 445.5 721 c 128,-1,9
 393 744 393 744 334 744 c 2,10,-1
 333 744 l 2,11,12
 274 744 274 744 222 721 c 128,-1,13
 170 698 170 698 128 655 c 1,14,15
 93 617 93 617 74 567.5 c 128,-1,16
 55 518 55 518 55 470 c 2,17,-1
 55 296 l 1,18,19
 56 236 56 236 72.5 183 c 128,-1,20
 89 130 89 130 128 88 c 1,21,22
 170 45 170 45 222.5 22 c 128,-1,23
 275 -1 275 -1 333 -1 c 2,24,-1
 334 -1 l 2,25,26
 393 -1 393 -1 445.5 22 c 128,-1,27
 498 45 498 45 539 89 c 0,28,29
 579 131 579 131 595.5 186.5 c 128,-1,30
 612 242 612 242 612 296 c 2,31,-1
 612 470 l 1,4,5
-4 891 m 1,32,-1
 666 891 l 1,33,-1
 666 -155 l 1,34,-1
 -4 -155 l 1,35,-1
 -4 891 l 1,32,-1
EndSplineSet
EndChar

StartChar: Oacute
Encoding: 211 211 103
Width: 656
Flags: W
LayerCount: 2
Fore
SplineSet
256.889 764.517 m 1,0,-1
 418.5 820.4 l 1,1,-1
 402.812 865.765 l 1,2,-1
 241.202 809.881 l 1,3,-1
 256.889 764.517 l 1,0,-1
612 470 m 1,4,5
 611 521 611 521 593 569 c 128,-1,6
 575 617 575 617 539 655 c 0,7,8
 498 698 498 698 445.5 721 c 128,-1,9
 393 744 393 744 334 744 c 2,10,-1
 333 744 l 2,11,12
 274 744 274 744 222 721 c 128,-1,13
 170 698 170 698 128 655 c 1,14,15
 93 617 93 617 74 567.5 c 128,-1,16
 55 518 55 518 55 470 c 2,17,-1
 55 296 l 1,18,19
 56 236 56 236 72.5 183 c 128,-1,20
 89 130 89 130 128 88 c 1,21,22
 170 45 170 45 222.5 22 c 128,-1,23
 275 -1 275 -1 333 -1 c 2,24,-1
 334 -1 l 2,25,26
 393 -1 393 -1 445.5 22 c 128,-1,27
 498 45 498 45 539 89 c 0,28,29
 579 131 579 131 595.5 186.5 c 128,-1,30
 612 242 612 242 612 296 c 2,31,-1
 612 470 l 1,4,5
-4 891 m 1,32,-1
 666 891 l 1,33,-1
 666 -155 l 1,34,-1
 -4 -155 l 1,35,-1
 -4 891 l 1,32,-1
EndSplineSet
EndChar

StartChar: Ocircumflex
Encoding: 212 212 104
Width: 656
Flags: W
LayerCount: 2
Fore
SplineSet
612 470 m 1,0,1
 611 521 611 521 593 569 c 128,-1,2
 575 617 575 617 539 655 c 0,3,4
 498 698 498 698 445.5 721 c 128,-1,5
 393 744 393 744 334 744 c 2,6,-1
 333 744 l 2,7,8
 274 744 274 744 222 721 c 128,-1,9
 170 698 170 698 128 655 c 1,10,11
 93 617 93 617 74 567.5 c 128,-1,12
 55 518 55 518 55 470 c 2,13,-1
 55 296 l 1,14,15
 56 236 56 236 72.5 183 c 128,-1,16
 89 130 89 130 128 88 c 1,17,18
 170 45 170 45 222.5 22 c 128,-1,19
 275 -1 275 -1 333 -1 c 2,20,-1
 334 -1 l 2,21,22
 393 -1 393 -1 445.5 22 c 128,-1,23
 498 45 498 45 539 89 c 0,24,25
 579 131 579 131 595.5 186.5 c 128,-1,26
 612 242 612 242 612 296 c 2,27,-1
 612 470 l 1,0,1
-4 891 m 1,28,-1
 666 891 l 1,29,-1
 666 -155 l 1,30,-1
 -4 -155 l 1,31,-1
 -4 891 l 1,28,-1
EndSplineSet
Validated: 1
EndChar

StartChar: Otilde
Encoding: 213 213 105
Width: 656
Flags: W
LayerCount: 2
Fore
SplineSet
401.786 851.849 m 6,0,1
 382.048 852.631 382.048 852.631 367 850.4 c 132,-1,2
 351.951 848.171 351.951 848.171 339.407 844.004 c 132,-1,3
 326.858 839.837 326.858 839.837 316.413 834.244 c 132,-1,4
 305.967 828.65 305.967 828.65 295.402 822.567 c 5,5,6
 285.974 818.277 285.974 818.277 280.43 816.307 c 132,-1,7
 274.877 814.335 274.877 814.335 268.303 814.597 c 4,8,9
 259.645 814.939 259.645 814.939 255.873 817.421 c 132,-1,10
 252.106 819.902 252.106 819.902 252.789 822.702 c 132,-1,11
 253.432 825.362 253.432 825.362 256.696 827.282 c 132,-1,12
 259.956 829.202 259.956 829.202 264.295 830.515 c 132,-1,13
 268.633 831.827 268.633 831.827 273.513 832.481 c 132,-1,14
 278.388 833.136 278.388 833.136 282.3 833.405 c 5,15,-1
 267.207 854.78 l 5,16,17
 256.652 854.492 256.652 854.492 245.547 852.671 c 132,-1,18
 234.445 850.85 234.445 850.85 225.166 847.189 c 132,-1,19
 215.891 843.528 215.891 843.528 209.114 837.932 c 132,-1,20
 202.338 832.335 202.338 832.335 200.469 824.635 c 5,21,22
 199.254 818.182 199.254 818.182 202.295 811.983 c 132,-1,23
 205.339 805.785 205.339 805.785 212.872 800.822 c 132,-1,24
 220.409 795.859 220.409 795.859 232.54 792.552 c 132,-1,25
 244.675 789.243 244.675 789.243 261.642 788.571 c 4,26,27
 279.994 787.844 279.994 787.844 292.74 789.953 c 132,-1,28
 305.487 792.062 305.487 792.062 316.281 796.228 c 132,-1,29
 327.083 800.394 327.083 800.394 337.388 806.134 c 132,-1,30
 347.697 811.873 347.697 811.873 361.196 818.546 c 4,31,32
 367.519 821.547 367.519 821.547 372.966 823.098 c 132,-1,33
 378.409 824.648 378.409 824.648 384.327 824.555 c 4,34,35
 394.06 824.311 394.06 824.311 398.002 821.822 c 132,-1,36
 401.939 819.335 401.939 819.335 402.055 816.927 c 4,37,38
 402.415 814.086 402.415 814.086 397.839 811.794 c 132,-1,39
 393.264 809.502 393.264 809.502 387.834 808.021 c 132,-1,40
 382.408 806.54 382.408 806.54 377.688 805.809 c 132,-1,41
 372.966 805.076 372.966 805.076 372.685 805.37 c 6,42,-1
 390.451 782.052 l 5,43,44
 404.642 782.902 404.642 782.902 416.314 785.62 c 132,-1,45
 427.983 788.338 427.983 788.338 436.687 792.516 c 132,-1,46
 445.395 796.693 445.395 796.693 450.886 802.059 c 132,-1,47
 456.381 807.424 456.381 807.424 457.908 813.724 c 4,48,49
 459.879 821.843 459.879 821.843 456.764 828.469 c 132,-1,50
 453.653 835.093 453.653 835.093 446.622 839.966 c 132,-1,51
 439.586 844.838 439.586 844.838 429.308 847.86 c 132,-1,52
 419.029 850.883 419.029 850.883 406.631 851.656 c 5,53,-1
 401.786 851.849 l 6,0,1
612 470 m 1,54,55
 611 521 611 521 593 569 c 128,-1,56
 575 617 575 617 539 655 c 0,57,58
 498 698 498 698 445.5 721 c 128,-1,59
 393 744 393 744 334 744 c 2,60,-1
 333 744 l 2,61,62
 274 744 274 744 222 721 c 128,-1,63
 170 698 170 698 128 655 c 1,64,65
 93 617 93 617 74 567.5 c 128,-1,66
 55 518 55 518 55 470 c 2,67,-1
 55 296 l 1,68,69
 56 236 56 236 72.5 183 c 128,-1,70
 89 130 89 130 128 88 c 1,71,72
 170 45 170 45 222.5 22 c 128,-1,73
 275 -1 275 -1 333 -1 c 2,74,-1
 334 -1 l 2,75,76
 393 -1 393 -1 445.5 22 c 128,-1,77
 498 45 498 45 539 89 c 0,78,79
 579 131 579 131 595.5 186.5 c 128,-1,80
 612 242 612 242 612 296 c 2,81,-1
 612 470 l 1,54,55
-4 891 m 1,82,-1
 666 891 l 1,83,-1
 666 -155 l 1,84,-1
 -4 -155 l 1,85,-1
 -4 891 l 1,82,-1
EndSplineSet
EndChar

StartChar: Odieresis
Encoding: 214 214 106
Width: 656
Flags: W
LayerCount: 2
Fore
SplineSet
151 847.4 m 1,0,-1
 151 781.4 l 1,1,-1
 217 781.4 l 1,2,-1
 217 847.4 l 1,3,-1
 151 847.4 l 1,0,-1
448 847.4 m 5,4,-1
 448 781.4 l 5,5,-1
 514 781.4 l 5,6,-1
 514 847.4 l 5,7,-1
 448 847.4 l 5,4,-1
612 470 m 1,8,9
 611 521 611 521 593 569 c 128,-1,10
 575 617 575 617 539 655 c 0,11,12
 498 698 498 698 445.5 721 c 128,-1,13
 393 744 393 744 334 744 c 2,14,-1
 333 744 l 2,15,16
 274 744 274 744 222 721 c 128,-1,17
 170 698 170 698 128 655 c 1,18,19
 93 617 93 617 74 567.5 c 128,-1,20
 55 518 55 518 55 470 c 2,21,-1
 55 296 l 1,22,23
 56 236 56 236 72.5 183 c 128,-1,24
 89 130 89 130 128 88 c 1,25,26
 170 45 170 45 222.5 22 c 128,-1,27
 275 -1 275 -1 333 -1 c 2,28,-1
 334 -1 l 2,29,30
 393 -1 393 -1 445.5 22 c 128,-1,31
 498 45 498 45 539 89 c 0,32,33
 579 131 579 131 595.5 186.5 c 128,-1,34
 612 242 612 242 612 296 c 2,35,-1
 612 470 l 1,8,9
-4 891 m 1,36,-1
 666 891 l 1,37,-1
 666 -155 l 1,38,-1
 -4 -155 l 1,39,-1
 -4 891 l 1,36,-1
EndSplineSet
EndChar

StartChar: Agrave
Encoding: 192 192 107
Width: 782
Flags: W
LayerCount: 2
Fore
SplineSet
241.303 826.497 m 1,0,-1
 402.411 769.177 l 1,1,-1
 418.5 814.4 l 1,2,-1
 257.393 871.72 l 1,3,-1
 241.303 826.497 l 1,0,-1
520 0 m 1,4,-1
 711 0 l 1,5,-1
 493 744 l 1,6,-1
 269 744 l 1,7,-1
 51 0 l 1,8,-1
 242 0 l 1,9,-1
 308 196 l 1,10,-1
 453 196 l 1,11,-1
 520 0 l 1,4,-1
-2 891 m 1,12,-1
 792 891 l 1,13,-1
 792 -155 l 1,14,-1
 -2 -155 l 1,15,-1
 -2 891 l 1,12,-1
EndSplineSet
EndChar

StartChar: Aacute
Encoding: 193 193 108
Width: 782
Flags: W
LayerCount: 2
Fore
SplineSet
305.6 769.4 m 1,0,-1
 467.211 825.284 l 1,1,-1
 451.523 870.648 l 1,2,-1
 289.913 814.765 l 1,3,-1
 305.6 769.4 l 1,0,-1
520 0 m 1,4,-1
 711 0 l 1,5,-1
 493 744 l 1,6,-1
 269 744 l 1,7,-1
 51 0 l 1,8,-1
 242 0 l 1,9,-1
 308 196 l 1,10,-1
 453 196 l 1,11,-1
 520 0 l 1,4,-1
-2 891 m 1,12,-1
 792 891 l 1,13,-1
 792 -155 l 1,14,-1
 -2 -155 l 1,15,-1
 -2 891 l 1,12,-1
EndSplineSet
EndChar

StartChar: Acircumflex
Encoding: 194 194 109
Width: 782
Flags: W
LayerCount: 2
Fore
SplineSet
520 0 m 1,0,-1
 711 0 l 1,1,-1
 493 744 l 1,2,-1
 269 744 l 1,3,-1
 51 0 l 1,4,-1
 242 0 l 1,5,-1
 308 196 l 1,6,-1
 453 196 l 1,7,-1
 520 0 l 1,0,-1
-2 891 m 1,8,-1
 792 891 l 1,9,-1
 792 -155 l 1,10,-1
 -2 -155 l 1,11,-1
 -2 891 l 1,8,-1
EndSplineSet
Validated: 1
EndChar

StartChar: Atilde
Encoding: 195 195 110
Width: 782
Flags: W
LayerCount: 2
Fore
SplineSet
465.043 849.303 m 6,0,1
 445.305 850.085 445.305 850.085 430.257 847.854 c 132,-1,2
 415.208 845.625 415.208 845.625 402.664 841.458 c 132,-1,3
 390.115 837.291 390.115 837.291 379.67 831.698 c 132,-1,4
 369.224 826.104 369.224 826.104 358.659 820.021 c 5,5,6
 349.23 815.731 349.23 815.731 343.687 813.761 c 132,-1,7
 338.134 811.789 338.134 811.789 331.56 812.051 c 4,8,9
 322.901 812.394 322.901 812.394 319.13 814.875 c 132,-1,10
 315.363 817.356 315.363 817.356 316.046 820.156 c 132,-1,11
 316.688 822.816 316.688 822.816 319.953 824.736 c 132,-1,12
 323.213 826.656 323.213 826.656 327.552 827.969 c 132,-1,13
 331.89 829.281 331.89 829.281 336.77 829.936 c 132,-1,14
 341.645 830.59 341.645 830.59 345.557 830.859 c 5,15,-1
 330.464 852.234 l 5,16,17
 319.909 851.946 319.909 851.946 308.804 850.125 c 132,-1,18
 297.702 848.304 297.702 848.304 288.423 844.644 c 132,-1,19
 279.147 840.982 279.147 840.982 272.371 835.386 c 132,-1,20
 265.595 829.789 265.595 829.789 263.726 822.089 c 5,21,22
 262.511 815.636 262.511 815.636 265.552 809.438 c 132,-1,23
 268.596 803.239 268.596 803.239 276.129 798.276 c 132,-1,24
 283.666 793.313 283.666 793.313 295.797 790.006 c 132,-1,25
 307.932 786.697 307.932 786.697 324.898 786.025 c 4,26,27
 343.251 785.298 343.251 785.298 355.997 787.407 c 132,-1,28
 368.744 789.517 368.744 789.517 379.538 793.682 c 132,-1,29
 390.34 797.848 390.34 797.848 400.645 803.588 c 132,-1,30
 410.954 809.327 410.954 809.327 424.453 816 c 4,31,32
 430.775 819.001 430.775 819.001 436.223 820.552 c 132,-1,33
 441.666 822.103 441.666 822.103 447.584 822.009 c 4,34,35
 457.316 821.765 457.316 821.765 461.259 819.276 c 132,-1,36
 465.196 816.789 465.196 816.789 465.312 814.381 c 4,37,38
 465.672 811.54 465.672 811.54 461.096 809.248 c 132,-1,39
 456.521 806.956 456.521 806.956 451.091 805.475 c 132,-1,40
 445.665 803.994 445.665 803.994 440.944 803.263 c 132,-1,41
 436.223 802.53 436.223 802.53 435.941 802.824 c 6,42,-1
 453.708 779.506 l 5,43,44
 467.898 780.356 467.898 780.356 479.571 783.074 c 132,-1,45
 491.24 785.792 491.24 785.792 499.943 789.97 c 132,-1,46
 508.651 794.147 508.651 794.147 514.143 799.513 c 132,-1,47
 519.638 804.878 519.638 804.878 521.165 811.178 c 4,48,49
 523.136 819.297 523.136 819.297 520.021 825.923 c 132,-1,50
 516.91 832.547 516.91 832.547 509.879 837.42 c 132,-1,51
 502.843 842.292 502.843 842.292 492.564 845.314 c 132,-1,52
 482.286 848.337 482.286 848.337 469.888 849.11 c 5,53,-1
 465.043 849.303 l 6,0,1
520 0 m 1,54,-1
 711 0 l 1,55,-1
 493 744 l 1,56,-1
 269 744 l 1,57,-1
 51 0 l 1,58,-1
 242 0 l 1,59,-1
 308 196 l 1,60,-1
 453 196 l 1,61,-1
 520 0 l 1,54,-1
-2 891 m 1,62,-1
 792 891 l 1,63,-1
 792 -155 l 1,64,-1
 -2 -155 l 1,65,-1
 -2 891 l 1,62,-1
EndSplineSet
EndChar

StartChar: Adieresis
Encoding: 196 196 111
Width: 782
Flags: W
LayerCount: 2
Fore
SplineSet
193.92 844.4 m 5,0,-1
 259.92 844.4 l 5,1,-1
 259.92 778.4 l 5,2,-1
 193.92 778.4 l 5,3,-1
 193.92 844.4 l 5,0,-1
490.92 844.4 m 5,4,-1
 556.92 844.4 l 5,5,-1
 556.92 778.4 l 5,6,-1
 490.92 778.4 l 5,7,-1
 490.92 844.4 l 5,4,-1
241.2 0 m 1,8,-1
 50.2002 0 l 1,9,-1
 268.2 744 l 1,10,-1
 492.2 744 l 1,11,-1
 710.2 0 l 1,12,-1
 519.2 0 l 1,13,-1
 453.2 196 l 1,14,-1
 308.2 196 l 1,15,-1
 241.2 0 l 1,8,-1
763.2 891 m 1,16,-1
 -30.7998 891 l 1,17,-1
 -30.7998 -155 l 1,18,-1
 763.2 -155 l 1,19,-1
 763.2 891 l 1,16,-1
EndSplineSet
EndChar

StartChar: Aring
Encoding: 197 197 112
Width: 782
Flags: W
LayerCount: 2
Fore
SplineSet
338.6 820.399 m 132,-1,1
 338.6 801.77 338.6 801.77 351.785 788.585 c 132,-1,2
 364.97 775.399 364.97 775.399 383.6 775.399 c 132,-1,3
 402.23 775.399 402.23 775.399 415.415 788.585 c 132,-1,4
 428.6 801.77 428.6 801.77 428.6 820.399 c 132,-1,5
 428.6 839.03 428.6 839.03 415.415 852.215 c 132,-1,6
 402.23 865.399 402.23 865.399 383.6 865.399 c 132,-1,7
 364.97 865.399 364.97 865.399 351.785 852.215 c 132,-1,0
 338.6 839.03 338.6 839.03 338.6 820.399 c 132,-1,1
520 0 m 1,8,-1
 711 0 l 1,9,-1
 493 744 l 1,10,-1
 269 744 l 1,11,-1
 51 0 l 1,12,-1
 242 0 l 1,13,-1
 308 196 l 1,14,-1
 453 196 l 1,15,-1
 520 0 l 1,8,-1
-2 891 m 1,16,-1
 792 891 l 1,17,-1
 792 -155 l 1,18,-1
 -2 -155 l 1,19,-1
 -2 891 l 1,16,-1
EndSplineSet
EndChar

StartChar: Egrave
Encoding: 200 200 113
Width: 571
Flags: W
LayerCount: 2
Fore
SplineSet
241.303 826.497 m 1,0,-1
 402.411 769.177 l 1,1,-1
 418.5 814.4 l 1,2,-1
 257.393 871.72 l 1,3,-1
 241.303 826.497 l 1,0,-1
516 744 m 1,4,-1
 60 744 l 1,5,-1
 60 0 l 1,6,-1
 516 0 l 1,7,-1
 516 168 l 1,8,-1
 228 168 l 1,9,-1
 228 288 l 1,10,-1
 440 288 l 1,11,-1
 440 456 l 1,12,-1
 228 456 l 1,13,-1
 228 576 l 1,14,-1
 516 576 l 1,15,-1
 516 744 l 1,4,-1
-4 891 m 1,16,-1
 581 891 l 1,17,-1
 581 -155 l 1,18,-1
 -4 -155 l 1,19,-1
 -4 891 l 1,16,-1
EndSplineSet
EndChar

StartChar: Eacute
Encoding: 201 201 114
Width: 571
Flags: W
LayerCount: 2
Fore
SplineSet
256.889 764.517 m 1,0,-1
 418.5 820.4 l 1,1,-1
 402.812 865.765 l 1,2,-1
 241.202 809.881 l 1,3,-1
 256.889 764.517 l 1,0,-1
516 744 m 1,4,-1
 60 744 l 1,5,-1
 60 0 l 1,6,-1
 516 0 l 1,7,-1
 516 168 l 1,8,-1
 228 168 l 1,9,-1
 228 288 l 1,10,-1
 440 288 l 1,11,-1
 440 456 l 1,12,-1
 228 456 l 1,13,-1
 228 576 l 1,14,-1
 516 576 l 1,15,-1
 516 744 l 1,4,-1
-4 891 m 1,16,-1
 581 891 l 1,17,-1
 581 -155 l 1,18,-1
 -4 -155 l 1,19,-1
 -4 891 l 1,16,-1
EndSplineSet
EndChar

StartChar: Ecircumflex
Encoding: 202 202 115
Width: 571
Flags: W
LayerCount: 2
Fore
SplineSet
516 744 m 1,0,-1
 60 744 l 1,1,-1
 60 0 l 1,2,-1
 516 0 l 1,3,-1
 516 168 l 1,4,-1
 228 168 l 1,5,-1
 228 288 l 1,6,-1
 440 288 l 1,7,-1
 440 456 l 1,8,-1
 228 456 l 1,9,-1
 228 576 l 1,10,-1
 516 576 l 1,11,-1
 516 744 l 1,0,-1
-4 891 m 1,12,-1
 581 891 l 1,13,-1
 581 -155 l 1,14,-1
 -4 -155 l 1,15,-1
 -4 891 l 1,12,-1
EndSplineSet
Validated: 1
EndChar

StartChar: Edieresis
Encoding: 203 203 116
Width: 571
Flags: W
LayerCount: 2
Fore
SplineSet
114.5 844.4 m 5,0,-1
 114.5 778.4 l 5,1,-1
 180.5 778.4 l 5,2,-1
 180.5 844.4 l 5,3,-1
 114.5 844.4 l 5,0,-1
411.5 844.4 m 5,4,-1
 411.5 778.4 l 5,5,-1
 477.5 778.4 l 5,6,-1
 477.5 844.4 l 5,7,-1
 411.5 844.4 l 5,4,-1
516 744 m 1,8,-1
 60 744 l 1,9,-1
 60 0 l 1,10,-1
 516 0 l 1,11,-1
 516 168 l 1,12,-1
 228 168 l 1,13,-1
 228 288 l 1,14,-1
 440 288 l 1,15,-1
 440 456 l 1,16,-1
 228 456 l 1,17,-1
 228 576 l 1,18,-1
 516 576 l 1,19,-1
 516 744 l 1,8,-1
-4 891 m 1,20,-1
 581 891 l 1,21,-1
 581 -155 l 1,22,-1
 -4 -155 l 1,23,-1
 -4 891 l 1,20,-1
EndSplineSet
EndChar

StartChar: Igrave
Encoding: 204 204 117
Width: 290
Flags: W
LayerCount: 2
Fore
SplineSet
55.8027 826.497 m 5,0,-1
 216.911 769.177 l 5,1,-1
 233 814.4 l 5,2,-1
 71.8926 871.72 l 5,3,-1
 55.8027 826.497 l 5,0,-1
228 744 m 1,4,-1
 60 744 l 1,5,-1
 60 0 l 1,6,-1
 228 0 l 1,7,-1
 228 744 l 1,4,-1
-4 891 m 1,8,-1
 296 891 l 1,9,-1
 296 -155 l 1,10,-1
 -4 -155 l 1,11,-1
 -4 891 l 1,8,-1
EndSplineSet
EndChar

StartChar: Iacute
Encoding: 205 205 118
Width: 290
Flags: W
LayerCount: 2
Fore
SplineSet
83.3887 767.517 m 5,0,-1
 245 823.4 l 5,1,-1
 229.312 868.765 l 5,2,-1
 67.7021 812.881 l 5,3,-1
 83.3887 767.517 l 5,0,-1
228 744 m 1,4,-1
 60 744 l 1,5,-1
 60 0 l 1,6,-1
 228 0 l 1,7,-1
 228 744 l 1,4,-1
-4 891 m 1,8,-1
 296 891 l 1,9,-1
 296 -155 l 1,10,-1
 -4 -155 l 1,11,-1
 -4 891 l 1,8,-1
EndSplineSet
EndChar

StartChar: Icircumflex
Encoding: 206 206 119
Width: 290
Flags: W
LayerCount: 2
Fore
SplineSet
228 744 m 1,0,-1
 60 744 l 1,1,-1
 60 0 l 1,2,-1
 228 0 l 1,3,-1
 228 744 l 1,0,-1
-4 891 m 1,4,-1
 296 891 l 1,5,-1
 296 -155 l 1,6,-1
 -4 -155 l 1,7,-1
 -4 891 l 1,4,-1
EndSplineSet
Validated: 1
EndChar

StartChar: Idieresis
Encoding: 207 207 120
Width: 290
Flags: W
LayerCount: 2
Fore
SplineSet
32 847.4 m 5,0,-1
 32 781.4 l 5,1,-1
 98 781.4 l 5,2,-1
 98 847.4 l 5,3,-1
 32 847.4 l 5,0,-1
182 847.4 m 5,4,-1
 182 781.4 l 5,5,-1
 248 781.4 l 5,6,-1
 248 847.4 l 5,7,-1
 182 847.4 l 5,4,-1
228 744 m 1,8,-1
 60 744 l 1,9,-1
 60 0 l 1,10,-1
 228 0 l 1,11,-1
 228 744 l 1,8,-1
-4 891 m 1,12,-1
 296 891 l 1,13,-1
 296 -155 l 1,14,-1
 -4 -155 l 1,15,-1
 -4 891 l 1,12,-1
EndSplineSet
EndChar

StartChar: Ugrave
Encoding: 217 217 121
Width: 652
Flags: W
LayerCount: 2
Fore
SplineSet
241.303 826.497 m 5,0,-1
 402.411 769.177 l 5,1,-1
 418.5 814.4 l 5,2,-1
 257.393 871.72 l 5,3,-1
 241.303 826.497 l 5,0,-1
425 745 m 1,4,-1
 425 310 l 2,5,6
 425 283 425 283 419.5 259 c 128,-1,7
 414 235 414 235 402.5 217 c 128,-1,8
 391 199 391 199 373 188.5 c 128,-1,9
 355 178 355 178 330 178 c 256,10,11
 305 178 305 178 287 188.5 c 128,-1,12
 269 199 269 199 257 217 c 128,-1,13
 245 235 245 235 239.5 259 c 128,-1,14
 234 283 234 283 234 310 c 2,15,-1
 234 745 l 1,16,-1
 61 745 l 1,17,-1
 61 297 l 2,18,19
 61 238 61 238 75.5 184 c 128,-1,20
 90 130 90 130 122 88.5 c 128,-1,21
 154 47 154 47 205 23 c 128,-1,22
 256 -1 256 -1 329 0 c 1,23,-1
 330 0 l 1,24,25
 396 -1 396 -1 446 20.5 c 128,-1,26
 496 42 496 42 529.5 81.5 c 128,-1,27
 563 121 563 121 580.5 176 c 128,-1,28
 598 231 598 231 598 297 c 2,29,-1
 598 745 l 1,30,-1
 425 745 l 1,4,-1
-4 891 m 1,31,-1
 661 891 l 1,32,-1
 661 -155 l 1,33,-1
 -4 -155 l 1,34,-1
 -4 891 l 1,31,-1
EndSplineSet
EndChar

StartChar: Uacute
Encoding: 218 218 122
Width: 652
Flags: W
LayerCount: 2
Fore
SplineSet
256.889 764.517 m 5,0,-1
 418.5 820.4 l 5,1,-1
 402.812 865.765 l 5,2,-1
 241.202 809.881 l 5,3,-1
 256.889 764.517 l 5,0,-1
425 745 m 1,4,-1
 425 310 l 2,5,6
 425 283 425 283 419.5 259 c 128,-1,7
 414 235 414 235 402.5 217 c 128,-1,8
 391 199 391 199 373 188.5 c 128,-1,9
 355 178 355 178 330 178 c 256,10,11
 305 178 305 178 287 188.5 c 128,-1,12
 269 199 269 199 257 217 c 128,-1,13
 245 235 245 235 239.5 259 c 128,-1,14
 234 283 234 283 234 310 c 2,15,-1
 234 745 l 1,16,-1
 61 745 l 1,17,-1
 61 297 l 2,18,19
 61 238 61 238 75.5 184 c 128,-1,20
 90 130 90 130 122 88.5 c 128,-1,21
 154 47 154 47 205 23 c 128,-1,22
 256 -1 256 -1 329 0 c 1,23,-1
 330 0 l 1,24,25
 396 -1 396 -1 446 20.5 c 128,-1,26
 496 42 496 42 529.5 81.5 c 128,-1,27
 563 121 563 121 580.5 176 c 128,-1,28
 598 231 598 231 598 297 c 2,29,-1
 598 745 l 1,30,-1
 425 745 l 1,4,-1
-4 891 m 1,31,-1
 661 891 l 1,32,-1
 661 -155 l 1,33,-1
 -4 -155 l 1,34,-1
 -4 891 l 1,31,-1
EndSplineSet
EndChar

StartChar: Ucircumflex
Encoding: 219 219 123
Width: 652
Flags: W
LayerCount: 2
Fore
SplineSet
425 745 m 1,0,-1
 425 310 l 2,1,2
 425 283 425 283 419.5 259 c 128,-1,3
 414 235 414 235 402.5 217 c 128,-1,4
 391 199 391 199 373 188.5 c 128,-1,5
 355 178 355 178 330 178 c 256,6,7
 305 178 305 178 287 188.5 c 128,-1,8
 269 199 269 199 257 217 c 128,-1,9
 245 235 245 235 239.5 259 c 128,-1,10
 234 283 234 283 234 310 c 2,11,-1
 234 745 l 1,12,-1
 61 745 l 1,13,-1
 61 297 l 2,14,15
 61 238 61 238 75.5 184 c 128,-1,16
 90 130 90 130 122 88.5 c 128,-1,17
 154 47 154 47 205 23 c 128,-1,18
 256 -1 256 -1 329 0 c 1,19,-1
 330 0 l 1,20,21
 396 -1 396 -1 446 20.5 c 128,-1,22
 496 42 496 42 529.5 81.5 c 128,-1,23
 563 121 563 121 580.5 176 c 128,-1,24
 598 231 598 231 598 297 c 2,25,-1
 598 745 l 1,26,-1
 425 745 l 1,0,-1
-4 891 m 1,27,-1
 661 891 l 1,28,-1
 661 -155 l 1,29,-1
 -4 -155 l 1,30,-1
 -4 891 l 1,27,-1
EndSplineSet
Validated: 33
EndChar

StartChar: Udieresis
Encoding: 220 220 124
Width: 652
Flags: W
LayerCount: 2
Fore
SplineSet
151.5 841.4 m 5,0,-1
 151.5 775.4 l 5,1,-1
 217.5 775.4 l 5,2,-1
 217.5 841.4 l 5,3,-1
 151.5 841.4 l 5,0,-1
448.5 841.4 m 5,4,-1
 448.5 775.4 l 5,5,-1
 514.5 775.4 l 5,6,-1
 514.5 841.4 l 5,7,-1
 448.5 841.4 l 5,4,-1
425 745 m 1,8,-1
 425 310 l 2,9,10
 425 283 425 283 419.5 259 c 128,-1,11
 414 235 414 235 402.5 217 c 128,-1,12
 391 199 391 199 373 188.5 c 128,-1,13
 355 178 355 178 330 178 c 256,14,15
 305 178 305 178 287 188.5 c 128,-1,16
 269 199 269 199 257 217 c 128,-1,17
 245 235 245 235 239.5 259 c 128,-1,18
 234 283 234 283 234 310 c 2,19,-1
 234 745 l 1,20,-1
 61 745 l 1,21,-1
 61 297 l 2,22,23
 61 238 61 238 75.5 184 c 128,-1,24
 90 130 90 130 122 88.5 c 128,-1,25
 154 47 154 47 205 23 c 128,-1,26
 256 -1 256 -1 329 0 c 1,27,-1
 330 0 l 1,28,29
 396 -1 396 -1 446 20.5 c 128,-1,30
 496 42 496 42 529.5 81.5 c 128,-1,31
 563 121 563 121 580.5 176 c 128,-1,32
 598 231 598 231 598 297 c 2,33,-1
 598 745 l 1,34,-1
 425 745 l 1,8,-1
-4 891 m 1,35,-1
 661 891 l 1,36,-1
 661 -155 l 1,37,-1
 -4 -155 l 1,38,-1
 -4 891 l 1,35,-1
EndSplineSet
EndChar

StartChar: agrave
Encoding: 224 224 125
Width: 782
Flags: W
LayerCount: 2
Fore
SplineSet
241.303 826.497 m 1,0,-1
 402.411 769.177 l 1,1,-1
 418.5 814.4 l 1,2,-1
 257.393 871.72 l 1,3,-1
 241.303 826.497 l 1,0,-1
520 0 m 1,4,-1
 711 0 l 1,5,-1
 493 744 l 1,6,-1
 269 744 l 1,7,-1
 51 0 l 1,8,-1
 242 0 l 1,9,-1
 308 196 l 1,10,-1
 453 196 l 1,11,-1
 520 0 l 1,4,-1
-2 891 m 1,12,-1
 792 891 l 1,13,-1
 792 -155 l 1,14,-1
 -2 -155 l 1,15,-1
 -2 891 l 1,12,-1
EndSplineSet
EndChar

StartChar: aacute
Encoding: 225 225 126
Width: 782
Flags: W
LayerCount: 2
Fore
SplineSet
305.6 769.4 m 1,0,-1
 467.211 825.284 l 1,1,-1
 451.523 870.648 l 1,2,-1
 289.913 814.765 l 1,3,-1
 305.6 769.4 l 1,0,-1
520 0 m 1,4,-1
 711 0 l 1,5,-1
 493 744 l 1,6,-1
 269 744 l 1,7,-1
 51 0 l 1,8,-1
 242 0 l 1,9,-1
 308 196 l 1,10,-1
 453 196 l 1,11,-1
 520 0 l 1,4,-1
-2 891 m 1,12,-1
 792 891 l 1,13,-1
 792 -155 l 1,14,-1
 -2 -155 l 1,15,-1
 -2 891 l 1,12,-1
EndSplineSet
EndChar

StartChar: adieresis
Encoding: 228 228 127
Width: 782
Flags: W
LayerCount: 2
Fore
SplineSet
193.92 844.4 m 5,0,-1
 259.92 844.4 l 5,1,-1
 259.92 778.4 l 5,2,-1
 193.92 778.4 l 5,3,-1
 193.92 844.4 l 5,0,-1
490.92 844.4 m 5,4,-1
 556.92 844.4 l 5,5,-1
 556.92 778.4 l 5,6,-1
 490.92 778.4 l 5,7,-1
 490.92 844.4 l 5,4,-1
241.2 0 m 1,8,-1
 50.2002 0 l 1,9,-1
 268.2 744 l 1,10,-1
 492.2 744 l 1,11,-1
 710.2 0 l 1,12,-1
 519.2 0 l 1,13,-1
 453.2 196 l 1,14,-1
 308.2 196 l 1,15,-1
 241.2 0 l 1,8,-1
763.2 891 m 1,16,-1
 -30.7998 891 l 1,17,-1
 -30.7998 -155 l 1,18,-1
 763.2 -155 l 1,19,-1
 763.2 891 l 1,16,-1
EndSplineSet
EndChar

StartChar: aring
Encoding: 229 229 128
Width: 782
Flags: W
LayerCount: 2
Fore
SplineSet
338.6 820.399 m 132,-1,1
 338.6 801.77 338.6 801.77 351.785 788.585 c 132,-1,2
 364.97 775.399 364.97 775.399 383.6 775.399 c 132,-1,3
 402.23 775.399 402.23 775.399 415.415 788.585 c 132,-1,4
 428.6 801.77 428.6 801.77 428.6 820.399 c 132,-1,5
 428.6 839.03 428.6 839.03 415.415 852.215 c 132,-1,6
 402.23 865.399 402.23 865.399 383.6 865.399 c 132,-1,7
 364.97 865.399 364.97 865.399 351.785 852.215 c 132,-1,0
 338.6 839.03 338.6 839.03 338.6 820.399 c 132,-1,1
520 0 m 1,8,-1
 711 0 l 1,9,-1
 493 744 l 1,10,-1
 269 744 l 1,11,-1
 51 0 l 1,12,-1
 242 0 l 1,13,-1
 308 196 l 1,14,-1
 453 196 l 1,15,-1
 520 0 l 1,8,-1
-2 891 m 1,16,-1
 792 891 l 1,17,-1
 792 -155 l 1,18,-1
 -2 -155 l 1,19,-1
 -2 891 l 1,16,-1
EndSplineSet
EndChar

StartChar: egrave
Encoding: 232 232 129
Width: 571
Flags: W
LayerCount: 2
Fore
SplineSet
241.303 826.497 m 1,0,-1
 402.411 769.177 l 1,1,-1
 418.5 814.4 l 1,2,-1
 257.393 871.72 l 1,3,-1
 241.303 826.497 l 1,0,-1
516 744 m 1,4,-1
 60 744 l 1,5,-1
 60 0 l 1,6,-1
 516 0 l 1,7,-1
 516 168 l 1,8,-1
 228 168 l 1,9,-1
 228 288 l 1,10,-1
 440 288 l 1,11,-1
 440 456 l 1,12,-1
 228 456 l 1,13,-1
 228 576 l 1,14,-1
 516 576 l 1,15,-1
 516 744 l 1,4,-1
-4 891 m 1,16,-1
 581 891 l 1,17,-1
 581 -155 l 1,18,-1
 -4 -155 l 1,19,-1
 -4 891 l 1,16,-1
EndSplineSet
EndChar

StartChar: eacute
Encoding: 233 233 130
Width: 571
Flags: W
LayerCount: 2
Fore
SplineSet
256.889 764.517 m 1,0,-1
 418.5 820.4 l 1,1,-1
 402.812 865.765 l 1,2,-1
 241.202 809.881 l 1,3,-1
 256.889 764.517 l 1,0,-1
516 744 m 1,4,-1
 60 744 l 1,5,-1
 60 0 l 1,6,-1
 516 0 l 1,7,-1
 516 168 l 1,8,-1
 228 168 l 1,9,-1
 228 288 l 1,10,-1
 440 288 l 1,11,-1
 440 456 l 1,12,-1
 228 456 l 1,13,-1
 228 576 l 1,14,-1
 516 576 l 1,15,-1
 516 744 l 1,4,-1
-4 891 m 1,16,-1
 581 891 l 1,17,-1
 581 -155 l 1,18,-1
 -4 -155 l 1,19,-1
 -4 891 l 1,16,-1
EndSplineSet
EndChar

StartChar: edieresis
Encoding: 235 235 131
Width: 571
Flags: W
LayerCount: 2
Fore
SplineSet
114.5 844.4 m 5,0,-1
 114.5 778.4 l 5,1,-1
 180.5 778.4 l 5,2,-1
 180.5 844.4 l 5,3,-1
 114.5 844.4 l 5,0,-1
411.5 844.4 m 5,4,-1
 411.5 778.4 l 5,5,-1
 477.5 778.4 l 5,6,-1
 477.5 844.4 l 5,7,-1
 411.5 844.4 l 5,4,-1
516 744 m 1,8,-1
 60 744 l 1,9,-1
 60 0 l 1,10,-1
 516 0 l 1,11,-1
 516 168 l 1,12,-1
 228 168 l 1,13,-1
 228 288 l 1,14,-1
 440 288 l 1,15,-1
 440 456 l 1,16,-1
 228 456 l 1,17,-1
 228 576 l 1,18,-1
 516 576 l 1,19,-1
 516 744 l 1,8,-1
-4 891 m 1,20,-1
 581 891 l 1,21,-1
 581 -155 l 1,22,-1
 -4 -155 l 1,23,-1
 -4 891 l 1,20,-1
EndSplineSet
EndChar

StartChar: igrave
Encoding: 236 236 132
Width: 290
Flags: W
LayerCount: 2
Fore
SplineSet
55.8027 826.497 m 5,0,-1
 216.911 769.177 l 5,1,-1
 233 814.4 l 5,2,-1
 71.8926 871.72 l 5,3,-1
 55.8027 826.497 l 5,0,-1
228 744 m 1,4,-1
 60 744 l 1,5,-1
 60 0 l 1,6,-1
 228 0 l 1,7,-1
 228 744 l 1,4,-1
-4 891 m 1,8,-1
 296 891 l 1,9,-1
 296 -155 l 1,10,-1
 -4 -155 l 1,11,-1
 -4 891 l 1,8,-1
EndSplineSet
EndChar

StartChar: iacute
Encoding: 237 237 133
Width: 290
Flags: W
LayerCount: 2
Fore
SplineSet
83.3887 767.517 m 5,0,-1
 245 823.4 l 5,1,-1
 229.312 868.765 l 5,2,-1
 67.7021 812.881 l 5,3,-1
 83.3887 767.517 l 5,0,-1
228 744 m 1,4,-1
 60 744 l 1,5,-1
 60 0 l 1,6,-1
 228 0 l 1,7,-1
 228 744 l 1,4,-1
-4 891 m 1,8,-1
 296 891 l 1,9,-1
 296 -155 l 1,10,-1
 -4 -155 l 1,11,-1
 -4 891 l 1,8,-1
EndSplineSet
EndChar

StartChar: idieresis
Encoding: 239 239 134
Width: 290
Flags: W
LayerCount: 2
Fore
SplineSet
32 847.4 m 5,0,-1
 32 781.4 l 5,1,-1
 98 781.4 l 5,2,-1
 98 847.4 l 5,3,-1
 32 847.4 l 5,0,-1
182 847.4 m 5,4,-1
 182 781.4 l 5,5,-1
 248 781.4 l 5,6,-1
 248 847.4 l 5,7,-1
 182 847.4 l 5,4,-1
228 744 m 1,8,-1
 60 744 l 1,9,-1
 60 0 l 1,10,-1
 228 0 l 1,11,-1
 228 744 l 1,8,-1
-4 891 m 1,12,-1
 296 891 l 1,13,-1
 296 -155 l 1,14,-1
 -4 -155 l 1,15,-1
 -4 891 l 1,12,-1
EndSplineSet
EndChar

StartChar: ograve
Encoding: 242 242 135
Width: 656
Flags: W
LayerCount: 2
Fore
SplineSet
241.303 826.497 m 5,0,-1
 402.411 769.177 l 5,1,-1
 418.5 814.4 l 5,2,-1
 257.393 871.72 l 5,3,-1
 241.303 826.497 l 5,0,-1
612 470 m 1,4,5
 611 521 611 521 593 569 c 128,-1,6
 575 617 575 617 539 655 c 0,7,8
 498 698 498 698 445.5 721 c 128,-1,9
 393 744 393 744 334 744 c 2,10,-1
 333 744 l 2,11,12
 274 744 274 744 222 721 c 128,-1,13
 170 698 170 698 128 655 c 1,14,15
 93 617 93 617 74 567.5 c 128,-1,16
 55 518 55 518 55 470 c 2,17,-1
 55 296 l 1,18,19
 56 236 56 236 72.5 183 c 128,-1,20
 89 130 89 130 128 88 c 1,21,22
 170 45 170 45 222.5 22 c 128,-1,23
 275 -1 275 -1 333 -1 c 2,24,-1
 334 -1 l 2,25,26
 393 -1 393 -1 445.5 22 c 128,-1,27
 498 45 498 45 539 89 c 0,28,29
 579 131 579 131 595.5 186.5 c 128,-1,30
 612 242 612 242 612 296 c 2,31,-1
 612 470 l 1,4,5
-4 891 m 1,32,-1
 666 891 l 1,33,-1
 666 -155 l 1,34,-1
 -4 -155 l 1,35,-1
 -4 891 l 1,32,-1
EndSplineSet
EndChar

StartChar: oacute
Encoding: 243 243 136
Width: 656
Flags: W
LayerCount: 2
Fore
SplineSet
256.889 764.517 m 1,0,-1
 418.5 820.4 l 1,1,-1
 402.812 865.765 l 1,2,-1
 241.202 809.881 l 1,3,-1
 256.889 764.517 l 1,0,-1
612 470 m 1,4,5
 611 521 611 521 593 569 c 128,-1,6
 575 617 575 617 539 655 c 0,7,8
 498 698 498 698 445.5 721 c 128,-1,9
 393 744 393 744 334 744 c 2,10,-1
 333 744 l 2,11,12
 274 744 274 744 222 721 c 128,-1,13
 170 698 170 698 128 655 c 1,14,15
 93 617 93 617 74 567.5 c 128,-1,16
 55 518 55 518 55 470 c 2,17,-1
 55 296 l 1,18,19
 56 236 56 236 72.5 183 c 128,-1,20
 89 130 89 130 128 88 c 1,21,22
 170 45 170 45 222.5 22 c 128,-1,23
 275 -1 275 -1 333 -1 c 2,24,-1
 334 -1 l 2,25,26
 393 -1 393 -1 445.5 22 c 128,-1,27
 498 45 498 45 539 89 c 0,28,29
 579 131 579 131 595.5 186.5 c 128,-1,30
 612 242 612 242 612 296 c 2,31,-1
 612 470 l 1,4,5
-4 891 m 1,32,-1
 666 891 l 1,33,-1
 666 -155 l 1,34,-1
 -4 -155 l 1,35,-1
 -4 891 l 1,32,-1
EndSplineSet
EndChar

StartChar: odieresis
Encoding: 246 246 137
Width: 656
Flags: W
LayerCount: 2
Fore
SplineSet
151 847.4 m 1,0,-1
 151 781.4 l 1,1,-1
 217 781.4 l 1,2,-1
 217 847.4 l 1,3,-1
 151 847.4 l 1,0,-1
448 847.4 m 5,4,-1
 448 781.4 l 5,5,-1
 514 781.4 l 5,6,-1
 514 847.4 l 5,7,-1
 448 847.4 l 5,4,-1
612 470 m 1,8,9
 611 521 611 521 593 569 c 128,-1,10
 575 617 575 617 539 655 c 0,11,12
 498 698 498 698 445.5 721 c 128,-1,13
 393 744 393 744 334 744 c 2,14,-1
 333 744 l 2,15,16
 274 744 274 744 222 721 c 128,-1,17
 170 698 170 698 128 655 c 1,18,19
 93 617 93 617 74 567.5 c 128,-1,20
 55 518 55 518 55 470 c 2,21,-1
 55 296 l 1,22,23
 56 236 56 236 72.5 183 c 128,-1,24
 89 130 89 130 128 88 c 1,25,26
 170 45 170 45 222.5 22 c 128,-1,27
 275 -1 275 -1 333 -1 c 2,28,-1
 334 -1 l 2,29,30
 393 -1 393 -1 445.5 22 c 128,-1,31
 498 45 498 45 539 89 c 0,32,33
 579 131 579 131 595.5 186.5 c 128,-1,34
 612 242 612 242 612 296 c 2,35,-1
 612 470 l 1,8,9
-4 891 m 1,36,-1
 666 891 l 1,37,-1
 666 -155 l 1,38,-1
 -4 -155 l 1,39,-1
 -4 891 l 1,36,-1
EndSplineSet
EndChar

StartChar: ugrave
Encoding: 249 249 138
Width: 652
Flags: W
LayerCount: 2
Fore
SplineSet
241.303 826.497 m 5,0,-1
 402.411 769.177 l 5,1,-1
 418.5 814.4 l 5,2,-1
 257.393 871.72 l 5,3,-1
 241.303 826.497 l 5,0,-1
425 745 m 1,4,-1
 425 310 l 2,5,6
 425 283 425 283 419.5 259 c 128,-1,7
 414 235 414 235 402.5 217 c 128,-1,8
 391 199 391 199 373 188.5 c 128,-1,9
 355 178 355 178 330 178 c 256,10,11
 305 178 305 178 287 188.5 c 128,-1,12
 269 199 269 199 257 217 c 128,-1,13
 245 235 245 235 239.5 259 c 128,-1,14
 234 283 234 283 234 310 c 2,15,-1
 234 745 l 1,16,-1
 61 745 l 1,17,-1
 61 297 l 2,18,19
 61 238 61 238 75.5 184 c 128,-1,20
 90 130 90 130 122 88.5 c 128,-1,21
 154 47 154 47 205 23 c 128,-1,22
 256 -1 256 -1 329 0 c 1,23,-1
 330 0 l 1,24,25
 396 -1 396 -1 446 20.5 c 128,-1,26
 496 42 496 42 529.5 81.5 c 128,-1,27
 563 121 563 121 580.5 176 c 128,-1,28
 598 231 598 231 598 297 c 2,29,-1
 598 745 l 1,30,-1
 425 745 l 1,4,-1
-4 891 m 1,31,-1
 661 891 l 1,32,-1
 661 -155 l 1,33,-1
 -4 -155 l 1,34,-1
 -4 891 l 1,31,-1
EndSplineSet
EndChar

StartChar: uacute
Encoding: 250 250 139
Width: 652
Flags: W
LayerCount: 2
Fore
SplineSet
256.889 764.517 m 5,0,-1
 418.5 820.4 l 5,1,-1
 402.812 865.765 l 5,2,-1
 241.202 809.881 l 5,3,-1
 256.889 764.517 l 5,0,-1
425 745 m 1,4,-1
 425 310 l 2,5,6
 425 283 425 283 419.5 259 c 128,-1,7
 414 235 414 235 402.5 217 c 128,-1,8
 391 199 391 199 373 188.5 c 128,-1,9
 355 178 355 178 330 178 c 256,10,11
 305 178 305 178 287 188.5 c 128,-1,12
 269 199 269 199 257 217 c 128,-1,13
 245 235 245 235 239.5 259 c 128,-1,14
 234 283 234 283 234 310 c 2,15,-1
 234 745 l 1,16,-1
 61 745 l 1,17,-1
 61 297 l 2,18,19
 61 238 61 238 75.5 184 c 128,-1,20
 90 130 90 130 122 88.5 c 128,-1,21
 154 47 154 47 205 23 c 128,-1,22
 256 -1 256 -1 329 0 c 1,23,-1
 330 0 l 1,24,25
 396 -1 396 -1 446 20.5 c 128,-1,26
 496 42 496 42 529.5 81.5 c 128,-1,27
 563 121 563 121 580.5 176 c 128,-1,28
 598 231 598 231 598 297 c 2,29,-1
 598 745 l 1,30,-1
 425 745 l 1,4,-1
-4 891 m 1,31,-1
 661 891 l 1,32,-1
 661 -155 l 1,33,-1
 -4 -155 l 1,34,-1
 -4 891 l 1,31,-1
EndSplineSet
EndChar

StartChar: udieresis
Encoding: 252 252 140
Width: 652
Flags: W
LayerCount: 2
Fore
SplineSet
151.5 841.4 m 5,0,-1
 151.5 775.4 l 5,1,-1
 217.5 775.4 l 5,2,-1
 217.5 841.4 l 5,3,-1
 151.5 841.4 l 5,0,-1
448.5 841.4 m 5,4,-1
 448.5 775.4 l 5,5,-1
 514.5 775.4 l 5,6,-1
 514.5 841.4 l 5,7,-1
 448.5 841.4 l 5,4,-1
425 745 m 1,8,-1
 425 310 l 2,9,10
 425 283 425 283 419.5 259 c 128,-1,11
 414 235 414 235 402.5 217 c 128,-1,12
 391 199 391 199 373 188.5 c 128,-1,13
 355 178 355 178 330 178 c 256,14,15
 305 178 305 178 287 188.5 c 128,-1,16
 269 199 269 199 257 217 c 128,-1,17
 245 235 245 235 239.5 259 c 128,-1,18
 234 283 234 283 234 310 c 2,19,-1
 234 745 l 1,20,-1
 61 745 l 1,21,-1
 61 297 l 2,22,23
 61 238 61 238 75.5 184 c 128,-1,24
 90 130 90 130 122 88.5 c 128,-1,25
 154 47 154 47 205 23 c 128,-1,26
 256 -1 256 -1 329 0 c 1,27,-1
 330 0 l 1,28,29
 396 -1 396 -1 446 20.5 c 128,-1,30
 496 42 496 42 529.5 81.5 c 128,-1,31
 563 121 563 121 580.5 176 c 128,-1,32
 598 231 598 231 598 297 c 2,33,-1
 598 745 l 1,34,-1
 425 745 l 1,8,-1
-4 891 m 1,35,-1
 661 891 l 1,36,-1
 661 -155 l 1,37,-1
 -4 -155 l 1,38,-1
 -4 891 l 1,35,-1
EndSplineSet
EndChar

StartChar: Ntilde
Encoding: 209 209 141
Width: 652
Flags: W
LayerCount: 2
Fore
SplineSet
391.079 849.245 m 6,0,1
 371.341 850.027 371.341 850.027 356.293 847.797 c 132,-1,2
 341.244 845.567 341.244 845.567 328.7 841.4 c 132,-1,3
 316.151 837.233 316.151 837.233 305.706 831.641 c 132,-1,4
 295.26 826.047 295.26 826.047 284.695 819.964 c 5,5,6
 275.267 815.674 275.267 815.674 269.723 813.703 c 132,-1,7
 264.17 811.731 264.17 811.731 257.596 811.993 c 4,8,9
 248.938 812.336 248.938 812.336 245.166 814.817 c 132,-1,10
 241.399 817.299 241.399 817.299 242.082 820.099 c 132,-1,11
 242.725 822.759 242.725 822.759 245.989 824.679 c 132,-1,12
 249.249 826.599 249.249 826.599 253.588 827.911 c 132,-1,13
 257.926 829.224 257.926 829.224 262.806 829.878 c 132,-1,14
 267.681 830.532 267.681 830.532 271.593 830.802 c 5,15,-1
 256.5 852.177 l 5,16,17
 245.945 851.889 245.945 851.889 234.84 850.067 c 132,-1,18
 223.738 848.246 223.738 848.246 214.459 844.586 c 132,-1,19
 205.184 840.925 205.184 840.925 198.407 835.328 c 132,-1,20
 191.631 829.731 191.631 829.731 189.762 822.031 c 5,21,22
 188.547 815.578 188.547 815.578 191.588 809.38 c 132,-1,23
 194.632 803.182 194.632 803.182 202.165 798.219 c 132,-1,24
 209.702 793.256 209.702 793.256 221.833 789.948 c 132,-1,25
 233.968 786.64 233.968 786.64 250.935 785.968 c 4,26,27
 269.287 785.24 269.287 785.24 282.033 787.35 c 132,-1,28
 294.78 789.459 294.78 789.459 305.574 793.624 c 132,-1,29
 316.376 797.79 316.376 797.79 326.681 803.53 c 132,-1,30
 336.99 809.27 336.99 809.27 350.489 815.942 c 4,31,32
 356.812 818.943 356.812 818.943 362.259 820.494 c 132,-1,33
 367.702 822.045 367.702 822.045 373.62 821.951 c 4,34,35
 383.353 821.707 383.353 821.707 387.295 819.219 c 132,-1,36
 391.232 816.731 391.232 816.731 391.348 814.323 c 4,37,38
 391.708 811.482 391.708 811.482 387.132 809.19 c 132,-1,39
 382.557 806.898 382.557 806.898 377.127 805.417 c 132,-1,40
 371.701 803.937 371.701 803.937 366.98 803.205 c 132,-1,41
 362.259 802.473 362.259 802.473 361.978 802.767 c 6,42,-1
 379.744 779.448 l 5,43,44
 393.935 780.299 393.935 780.299 405.607 783.017 c 132,-1,45
 417.276 785.734 417.276 785.734 425.979 789.912 c 132,-1,46
 434.688 794.09 434.688 794.09 440.179 799.455 c 132,-1,47
 445.674 804.82 445.674 804.82 447.201 811.12 c 4,48,49
 449.172 819.239 449.172 819.239 446.057 825.865 c 132,-1,50
 442.946 832.489 442.946 832.489 435.915 837.362 c 132,-1,51
 428.879 842.234 428.879 842.234 418.601 845.257 c 132,-1,52
 408.322 848.279 408.322 848.279 395.924 849.053 c 5,53,-1
 391.079 849.245 l 6,0,1
425 379 m 1,54,-1
 226 744 l 1,55,-1
 55 744 l 1,56,-1
 55 0 l 1,57,-1
 233 0 l 1,58,-1
 233 366 l 1,59,-1
 433 0 l 1,60,-1
 603 0 l 1,61,-1
 603 744 l 1,62,-1
 425 744 l 1,63,-1
 425 379 l 1,54,-1
-4 891 m 1,64,-1
 659 891 l 1,65,-1
 659 -155 l 1,66,-1
 -4 -155 l 1,67,-1
 -4 891 l 1,64,-1
EndSplineSet
EndChar

StartChar: Oslash
Encoding: 216 216 142
Width: 656
Flags: HWO
LayerCount: 2
Fore
SplineSet
552.528 705.323 m 1,0,-1
 190 0 l 1,1,-1
 109.122 37.8828 l 1,2,-1
 471.651 743.204 l 1,3,-1
 552.528 705.323 l 1,0,-1
612 470 m 1,4,5
 611 521 611 521 593 569 c 128,-1,6
 575 617 575 617 539 655 c 0,7,8
 498 698 498 698 445.5 721 c 128,-1,9
 393 744 393 744 334 744 c 2,10,-1
 333 744 l 2,11,12
 274 744 274 744 222 721 c 128,-1,13
 170 698 170 698 128 655 c 1,14,15
 93 617 93 617 74 567.5 c 128,-1,16
 55 518 55 518 55 470 c 2,17,-1
 55 296 l 1,18,19
 56 236 56 236 72.5 183 c 128,-1,20
 89 130 89 130 128 88 c 1,21,22
 170 45 170 45 222.5 22 c 128,-1,23
 275 -1 275 -1 333 -1 c 2,24,-1
 334 -1 l 2,25,26
 393 -1 393 -1 445.5 22 c 128,-1,27
 498 45 498 45 539 89 c 0,28,29
 579 131 579 131 595.5 186.5 c 128,-1,30
 612 242 612 242 612 296 c 2,31,-1
 612 470 l 1,4,5
-4 891 m 1,32,-1
 666 891 l 1,33,-1
 666 -155 l 1,34,-1
 -4 -155 l 1,35,-1
 -4 891 l 1,32,-1
EndSplineSet
EndChar
